/* XPM */
static char *_ec3bafcfce541018ca15532942169belYovbDPEsBKV4Sol[] = {
/* columns rows colors chars-per-pixel */
"42 42 199 2 ",
"   c None",
".  c black",
"X  c #060400",
"o  c #0A0600",
"O  c #090802",
"+  c #0A0902",
"@  c #0B0A03",
"#  c #110800",
"$  c #110A00",
"%  c #1A1000",
"&  c #1A1806",
"*  c #291800",
"=  c #2E1A00",
"-  c #2F1C00",
";  c #301C00",
":  c #311D00",
">  c #242109",
",  c #282509",
"<  c #292609",
"1  c #29260A",
"2  c #2A270A",
"3  c #2E2B0B",
"4  c #2F2C0B",
"5  c #3E2500",
"6  c #3E2600",
"7  c #302C0B",
"8  c #312D0B",
"9  c #322E0C",
"0  c #322F0D",
"q  c #35310C",
"w  c #39350E",
"e  c #442900",
"r  c #4E2E00",
"t  c #443E0F",
"y  c #513000",
"u  c #5F3700",
"i  c #5F3800",
"p  c #623A00",
"a  c #633B00",
"s  c #643B00",
"d  c #693E00",
"f  c #6A3F00",
"g  c #4E4913",
"h  c #4E4A14",
"j  c #514B13",
"k  c #6E4100",
"l  c #704200",
"z  c #7B4800",
"x  c #7D4B00",
"c  c #7F4D00",
"v  c #6D560E",
"b  c #675F18",
"n  c #6D6216",
"m  c #696219",
"M  c #6A6219",
"N  c #6E661A",
"B  c #70671A",
"V  c #70681B",
"C  c #7D6D18",
"Z  c #7C701A",
"A  c #9A5B00",
"S  c #9F5E00",
"D  c #996001",
"F  c #A06501",
"G  c #A46601",
"H  c #B26900",
"J  c #B56B00",
"K  c #B66C00",
"L  c #B77504",
"P  c #A07A10",
"I  c #C37400",
"U  c #C57700",
"Y  c #C07C02",
"T  c #8D811F",
"R  c #9E8D1F",
"E  c #A49320",
"W  c #B7A526",
"Q  c #BBAD2C",
"!  c #CC8402",
"~  c #D28401",
"^  c #D88701",
"/  c #E68B00",
"(  c #E39603",
")  c #EF9000",
"_  c #EC9C03",
"`  c #F19100",
"'  c #F09301",
"]  c #F29200",
"[  c #F49F03",
"{  c #FF9C01",
"}  c #FF9D01",
"|  c #FF9E01",
" . c #FF9F01",
".. c #ECA207",
"X. c #FFA001",
"o. c #FFA101",
"O. c #FFA301",
"+. c #FFA302",
"@. c #FFA401",
"#. c #FFA402",
"$. c #FFA502",
"%. c #FFA602",
"&. c #FFA703",
"*. c #F4AA04",
"=. c #FFA803",
"-. c #FFA903",
";. c #FFAA03",
":. c #FFAB03",
">. c #FFAC03",
",. c #FFAD03",
"<. c #FFAE03",
"1. c #F8AA04",
"2. c #FFAD04",
"3. c #FFAE04",
"4. c #FFAF04",
"5. c #FFB003",
"6. c #FFB004",
"7. c #FFB104",
"8. c #FFB204",
"9. c #FFB305",
"0. c #FCB505",
"q. c #FDB505",
"w. c #FFB404",
"e. c #FFB504",
"r. c #FFB405",
"t. c #FFB505",
"y. c #FFB604",
"u. c #FFB605",
"i. c #FFB705",
"p. c #FFB805",
"a. c #FFB905",
"s. c #FFBA05",
"d. c #FFB906",
"f. c #FFBA06",
"g. c #FFBB06",
"h. c #FFBC06",
"j. c #FFBD06",
"k. c #FFBE06",
"l. c #FFBE07",
"z. c #FFBF07",
"x. c #C0A720",
"c. c #C1B32E",
"v. c #C3B42E",
"b. c #C5B42C",
"n. c #D2BB28",
"m. c #FFC006",
"M. c #FFC106",
"N. c #FFC007",
"B. c #FFC107",
"V. c #FFC207",
"C. c #FFC208",
"Z. c #FFC309",
"A. c #FFC20A",
"S. c #FFC30A",
"D. c #FFC40A",
"F. c #FFC40B",
"G. c #FFC50C",
"H. c #FFC60C",
"J. c #FFC60D",
"K. c #FFC70E",
"L. c #E4C11F",
"P. c #F7C516",
"I. c #FDC711",
"U. c #FFC910",
"Y. c #FFCC13",
"T. c #FFCD13",
"R. c #FDCB15",
"E. c #FFCC14",
"W. c #FFCD14",
"Q. c #FFCE16",
"!. c #FFCF16",
"~. c #FFCF17",
"^. c #F4C719",
"/. c #F7CA1A",
"(. c #F8CE1D",
"). c #FFD51B",
"_. c #E1C82B",
"`. c #F1CF25",
"'. c #FDD522",
"]. c #FFD820",
"[. c #FFDA22",
"{. c #FFDB22",
"}. c #FFDA23",
"|. c #FFDE26",
" X c #F4D429",
".X c #E6D333",
"XX c #E8D534",
"oX c #E8D535",
"OX c #EFDB36",
"+X c #F0D931",
"@X c #F1DD36",
"#X c #F2DE36",
"$X c #FFE02C",
"%X c #FFE22E",
"&X c #FDE030",
"*X c #FDE131",
"=X c #FFE531",
"-X c #FFE732",
";X c #FFE832",
/* pixels */
"                                                                                    ",
"                                                                                    ",
"                                                                                    ",
"                                                                                    ",
"                                  X X X X X X X X X                                 ",
"                              . $ S J J J J J J J H 6 . .                           ",
"                            j V C ..4.>.>.4.4.>.>.:.D k s                           ",
"                        7 7 E ;X%XJ.m.Z.m.a.k.Z.Z.m.:.O.^ 6 : *                     ",
"                      t .XOX(.D.Z.m.Z.m.g.O.w.m.m.m.k.k.w.) ' c X                   ",
"                  . m n.R.W.J.w.&.k.m.m.l.} w.m.m.Z.:.7.l.a.a.( A X                 ",
"                  m x.).m.m.Z.a.:.:.a.Z.a.} w.Z.k.4.:.w.m.m.Z.a.( c *               ",
"                + v.{.m.Z.a.a.Z.k.} 4.Z.l.} 7.Z.a.} w.Z.Z.a.Z.m.a.' :               ",
"                & b.{.k.k.&.4.l.k.O.4.Z.k.} 7.Z.a.} w.m.w.O.a.m.a.) 6               ",
"              4 b.^.J.m.m.a.:.:.l.a.&.:.k.} 7.w.&.a.Z.7.&.w.k.Z.m.0.^ s .           ",
"              3 @XW.w.4.m.Z.a.:.:.k.w.w.Z.>.a.a.7.k.7.>.7.Z.m.w.>.k.&.k .           ",
"            9 n  XU.7.&.w.w.k.a.&.k.Z.J.W.~.W.U.Z.l.>.>.Z.w.w.4.:.k.:.A 6           ",
"          . N *XZ.Z.Z.a.} { 4.l.k.Z.k.P.oXoXoX`.D.Z.m.m.w.} } 4.m.m.Z.:.H X         ",
"          . B =XZ.m.m.k.g.g.:.:.m.m.>.L , , > Z %XZ.m.8.&.a.a.l.Z.m.m.>.K X         ",
"          . B =XJ.m.Z.Z.Z.Z.g.w.k.>.F r       w C `.U.a.7.Z.Z.m.Z.m.m.>.J X         ",
"          . B =XD.w.7.w.7.7.w.w.k.} i .         > oX).w.w.w.w.w.w.7.Z.:.J X         ",
"          . B =XZ.&.} } } } } :.k.} a .         , oXW.8.} } } } } O.a.4.J X         ",
"          . B =XA.l.k.a.k.k.a.l.k.O.a .         2 oXW.k.l.g.l.g.k.k.l.4.J X         ",
"          . V =XZ.m.Z.k.m.m.7.4.k.w.! z . . . h W /.J.7.4.l.Z.m.m.m.m.>.J X         ",
"          . V -XZ.Z.m.k.7.4.:.4.Z.m.w.! a a u P }.D.Z.w.&.7.4.a.V.m.D.>.K X         ",
"          . b _.I.Z.k.7.O.} 7.Z.a.Z.Z.w.} } } :.Z.m.a.k.a.} } >.a.Z.a._ S X         ",
"              t +XT.>.&.a.k.l.w.O.a.m.k.k.k.k.Z.Z.m.&.:.Z.k.k.>.&.k.&.x $           ",
"              9 @XT.a.a.Z.m.7.:.w.Z.4.4.k.:.a.w.&.k.a.4.:.k.m.k.w.m.&.l .           ",
"              , T L.W.m.k.7.4.7.k.7.4.7.a.{ 7.a.:.4.k.w.:.4.k.Z.k.1.G y             ",
"                + c.{.k.k.&.7.m.k.} 7.Z.k.} 7.Z.g.{ w.m.a.O.a.Z.a.) =               ",
"                + Q '.Z.m.k.Z.Z.a.O.7.m.l.} 7.Z.g.O.w.k.Z.k.l.m.w./ :               ",
"                  q R |.Z.m.Z.w.&.w.k.Z.a.} 7.Z.l.w.:.4.m.m.Z.w.~ e                 ",
"                    g R '.{.U.a.4.k.m.k.k.} w.m.Z.Z.7.a.m.8.w.L f                   ",
"                      q Q c._.U.W.Z.Z.Z.a.&.w.Z.Z.Z.a.a.*.U I f .                   ",
"                        @ + P #X+XI.Z.A.Z.Z.A.Z.Z.Z.[ ` U % o                       ",
"                            1 3 t _.;X;X=X=X=X=X=X*Xv = -                           ",
"                                  m V V V B B B B N 9                               ",
"                                  . . . . . . . . .                                 ",
"                                                                                    ",
"                                                                                    ",
"                                                                                    ",
"                                                                                    ",
"                                                                                    "
};
