/* XPM */
static char *_9f081b55de3405bf3048afa8dde76c4ToE65EhQDcacO3lA[] = {
/* columns rows colors chars-per-pixel */
"26 42 32 1 ",
"  c #130B05",
". c #341F0D",
"X c #321E0D",
"o c #36200E",
"O c #965A27",
"+ c #8E5625",
"@ c #905625",
"# c #331F0D",
"$ c #8F5625",
"% c #885223",
"& c #895224",
"* c #905726",
"= c #8A5324",
"- c #885224",
"; c #875123",
": c #925826",
"> c #915726",
", c #8B5324",
"< c #643C1A",
"1 c #623B19",
"2 c #8E5525",
"3 c #341F0E",
"4 c #895324",
"5 c #8C5425",
"6 c #824E22",
"7 c black",
"8 c #8B5424",
"9 c #855023",
"0 c #311D0D",
"q c #2E1C0C",
"w c #35200E",
"e c white",
/* pixels */
" .XXXXXXXXXXXXXXXXXXXXXX. ",
"oO+@@@@@@@@@@@@@@@@@@@@+Oo",
"#$%&&&&&&&&&&&&&&&&&&&&%$#",
"#*&====================&*#",
"#*&====================&*#",
"#*&====================&*#",
"#*&====================&*#",
"#*&====================&*#",
"#*&====================&*#",
"#*&====================&*#",
"#*&====================&*#",
"#*&====================&*#",
"#*&====================&*#",
"#*&====================&*#",
"#*&====================&*#",
"#*&====================&*#",
"#*&====================&*#",
"#*&====================&*#",
"#*&====================&*#",
"#*&===================-;*#",
"#*&===================:>*#",
"#*&=================,%<123",
"#*&================45677%o",
"#*&=================890q,w",
"#*&===================>@*#",
"#*&===================&;*#",
"#*&====================&*#",
"#*&====================&*#",
"#*&====================&*#",
"#*&====================&*#",
"#*&====================&*#",
"#*&====================&*#",
"#*&====================&*#",
"#*&====================&*#",
"#*&====================&*#",
"#*&====================&*#",
"#*&====================&*#",
"#*&====================&*#",
"#*&====================&*#",
"#$%&&&&&&&&&&&&&&&&&&&&%$#",
"oO+@@@@@@@@@@@@@@@@@@@@+Oo",
" .XXXXXXXXXXXXXXXXXXXXXX. "
};
