/* XPM */
static char *_5c0de6bbab94fc5aff10a820903d9fabwk0YMucCzSLiyQS[] = {
/* columns rows colors chars-per-pixel */
"42 42 143 2 ",
"   c #69A032",
".  c #6BA333",
"X  c #6FA936",
"o  c #73B038",
"O  c #75B239",
"+  c #72AE37",
"@  c #72AF38",
"#  c #71AD37",
"$  c #70AB36",
"%  c #74B038",
"&  c #6FAB36",
"*  c #74B238",
"=  c #77B73A",
"-  c #7BBC3C",
";  c #7EC03D",
":  c #7EBF3D",
">  c #7BBB3C",
",  c #78B73A",
"<  c #75B439",
"1  c #73B139",
"2  c #70AD37",
"3  c #71AC37",
"4  c #75B338",
"5  c #74B338",
"6  c #72AF37",
"7  c #6EA936",
"8  c #6CA534",
"9  c #74B239",
"0  c #73AF38",
"q  c #74B138",
"w  c #71AC36",
"e  c #74B139",
"r  c #72AE38",
"t  c #78B83B",
"y  c #7BBD3C",
"u  c #7DBE3D",
"i  c #7ABA3B",
"p  c #77B53A",
"a  c #70AC36",
"s  c #70AC37",
"d  c #72AD37",
"f  c #76B439",
"g  c #6FAA35",
"h  c #71AE37",
"j  c #75B238",
"k  c #77B63A",
"l  c #76B539",
"z  c #75B339",
"x  c #76B339",
"c  c #7ABB3B",
"v  c #7CBE3D",
"b  c #7DBF3D",
"n  c #7CBD3C",
"m  c #79B93A",
"M  c #73B138",
"N  c #7CBE3C",
"B  c #78B63A",
"V  c #78B83A",
"C  c #79B93B",
"Z  c #76B53A",
"A  c #79B83B",
"S  c #7FC13E",
"D  c #7EC13D",
"F  c #79BA3B",
"G  c #78B73B",
"H  c #7AB93B",
"J  c #7EC03E",
"K  c #7CBF3D",
"L  c #7ABB3C",
"P  c #77B539",
"I  c #7EC13E",
"U  c #7FC23E",
"Y  c #6EA935",
"T  c #7ABA3C",
"R  c #7DBE3C",
"E  c #81C43E",
"W  c #80C43E",
"Q  c #6FAA36",
"!  c #6EA835",
"~  c #6DA735",
"^  c #7FC13D",
"/  c #80C33E",
"(  c #7CBC3C",
")  c #81C53F",
"_  c #81C63F",
"`  c #7FC33E",
"'  c #6DA835",
"]  c #76B43A",
"[  c #7BBB3B",
"{  c #79B83A",
"}  c #6FAB37",
"|  c #7BBA3C",
" . c #7DC03D",
".. c #70AB37",
"X. c #7CBD3D",
"o. c #78B93B",
"O. c #73B037",
"+. c #82C53F",
"@. c #71AD36",
"#. c #82C63F",
"$. c #83C840",
"%. c #70AA36",
"&. c #71AE38",
"*. c #73AF37",
"=. c #7DBF3C",
"-. c #7BBC3B",
";. c #77B639",
":. c #74B339",
">. c #83C73F",
",. c #6DA635",
"<. c #6AA234",
"1. c #6AA334",
"2. c #6BA534",
"3. c #6CA634",
"4. c #6BA434",
"5. c #6CA635",
"6. c #69A133",
"7. c #69A234",
"8. c #72B038",
"9. c #6AA434",
"0. c #6CA535",
"q. c #77B73B",
"w. c #7ABC3B",
"e. c #79BA3C",
"r. c #7ABC3C",
"t. c #7BBD3D",
"y. c #73AE38",
"u. c #7CBF3C",
"i. c #7FC23D",
"p. c #7EC23D",
"a. c #81C53E",
"s. c #82C53E",
"d. c #75B43A",
"f. c #6EA836",
"g. c #6EA735",
"h. c #78B93A",
"j. c #82C73F",
"k. c #83C83F",
"l. c #6BA535",
"z. c #6CA735",
"x. c #84C940",
"c. c #6DA836",
"v. c white",
/* pixels */
"  . X o O o + + @ @ + + # $ $ + % % # & # * = - ; : > , < 1 @ 2 & & $ 3 o 4 5 6 & 7 ",
". 8 & o 9 o 6 0 q q q o + w w + e e r 3 6 < t y : u i p O o r 2 a $ s d q f f o 3 & ",
"g $ h q * o o j k , , l * 6 # 0 z x e o 9 = c v b n , * @ r # s $ s # o f m m l M @ ",
"* * * * * M q p > u N c = q 6 q p B p f = c n b b > f + 3 # # 3 3 # 0 O V y n C Z < ",
"= = l z 4 j f A u S D v F l * f G H C C i n b ; : > p o + 0 o 0 0 0 o O k c c V f z ",
"c F , l l k V > b J ; K - t k V L - n n n u b ; D u i k P l l f f O o o q z z q 6 + ",
"L i C , , C > n u b b v - c i > N b b b b b b I U U b - c i C C A k 9 @ h h # $ X Y ",
", , t C L n b b u n - L T c - R D S ; u N v b S E W S b n > L - - F k z q @ # Q ! ~ ",
"o 9 k L v ; ^ ; v - C , V C - ; / / : ( > - v U ) _ ` b n - L y N n > C k z o s 7 ' ",
"s @ ] - ; U U D v > V k k C - ; / / : > i i - I ) ) U b v y - v K N n [ { P * + s } ",
"} h < L b D D ; u - C , , C > v D D b ( | i i N S U S  .b b b b N - i , P O q q q q ",
"..h z C n N N N n - H , , t C L y N v X.> H A i n b b b ; I ; u > m P z q % e f , { ",
"2 r 9 k C C C C C { k l f f Z = o.F - - > A , { i i L - n v n i , f * o q O p i n b ",
"@ @ o e 9 z z j * q o O.6 6 @ M < k t C C { , k k k k = t C V f o + + o z , > ; W +.",
"@ @ @ + + + + # 3 w w @.@.a 3 @ 9 ] k , , , , k f z z z z l f o # # h 1 Z L ; W #.$.",
"3 # # # # # # s %.$ @.6 o o q < k , , k = , , k p < 9 o 9 f l z q e z Z C n ; U / E ",
"7 X a + @ @ &.# $ a 6 z Z = A c y y F , k , V V V k O % O p V t t A C F > n N N n n ",
"~ 7 s o 9 9 9 o 6 *.j p t i - N  .=.- A , , V C F A p z Z A L - - - L i i i i i i i ",
"7 & @ Z t A t , = k = , A i - n b b n > H { V F -.> i C T n u N y c C , p Z p , C C ",
"} # 9 t > - - - - c C , , t C c - n n X.> C V F - n n n b ; ; N c V l O q M 9 k H [ ",
"# @ 9 k C H H i C V k f < < l k A i - ( > C V m i c L - y v n i = f * M q z k i N : ",
"@ o o e O z z O * q o 0 @ + @ q f B A i F m V , = k k k , t , f M 6 @ o z t - D E #.",
"r + h # # 3 3 a $ $ s s s s s r e x p k = = = ;.f z z :.z f x o # s # o Z T b / #.>.",
"7 7 7 Y ! ' ~ ~ ,.~ X s # r 0 q z z z * * 4 z f f f z 9 z l f q h # h o z t - u ; S ",
"<.1.2.3.3.8 4.4.4.5.7 # o 9 f Z p f q + d + o z P k f z f k k z M @ @ o O l , A A C ",
"6.7.2.' ! ~ 3.,.! Q # 8.9 z < Z k f o # # 6 q l , , Z z z f f * o @ 0 % z ;.= k p ] ",
"9.0.7 # + # 3 + o 9 z z 9 o 0 9 l f M h @ z k C > F Z e o q o 6 # h 0 O k i c V l < ",
"7 Q r O x z O Z A i C = < 6 # 0 f Z 9 o z G > N v > k o r + # s $ # 0 z t n N C l z ",
"o q O x f z f , - N n c = q + q Z q.k Z q.L v b b - k M @ r + # # # @ * k c w.V < 9 ",
"C V k z O 9 z V y  . .N i l O f t e.e.T r.X.b ; ; n = * o o o o o o @ @ z k = f q o ",
"- [ V f z z p C N ;  .v - V k V L - t.v v u b ; D R C l z z z < f z o @ M z z q y.r ",
"i C { , , C i y u.=.N - L i H - v b b v v v b ^ / i.=.[ C t G t t k z M M q o # ..%.",
"P k , F - v  . .=.N r.F C i - b p.i.b n - n R ^ a.s./ D u - L L r.F = d.9 M r ..f.g.",
"q z k L u I U I b y i o.C L n ; ` `  .y - - n ^ a.#.E U ; N n N N y F q.d.e r ..X g.",
"# *.l - ; S U J u - F C C c n ; U U b y > c - ; / E U b N N N b b v - C k z o d 3 ..",
"$ + f L b J J b n L C V V F > v ; ; b y > i [ R ^ S b n y n N =.b N - C = f O q % % ",
"3 + z C n v N n - i , l l k , F - n N n - i i - u b N n n N n - c C k Z < < f k , A ",
"6 o z = C F i i C , f 9 M 9 z Z , C - n - i m C c - - n n N - C P j o 6 o 4 k [ =.; ",
"@ @ o 9 z < < f f z q o @ o o O ] , C c i h.= = , V C i c [ i k * *.d + M l i ; E #.",
"s s s s a a a a $ s h 0 o o q O f p k k ;.l f < z O O z f , , z o + 0 * k c =.W j.k.",
"Q 7 f.,.5.0.l.l.l.z.$ 0 q q q z ] p f z j 4 * q o + # # 0 z f q + @ 9 p i  .W #.$.x.",
"7 c.5.4.1.<.7.7.7.4.Q *.q q q z ] ] z q q q q O.+ 3 Q Q # q z o + @ O , - i._ k.x.x."
};
