/* XPM */
static char *_b1db1e8e6bc4b66d5744e5242e3abaaKc4Hp7vygreFnu11[] = {
/* columns rows colors chars-per-pixel */
"42 42 148 2 ",
"   c #CF5723",
".  c #CF5A24",
"X  c #CF5C2D",
"o  c #D25D27",
"O  c #D95D27",
"+  c #D55E2A",
"@  c #D95E2A",
"#  c #CF6029",
"$  c #D6622C",
"%  c #DA622D",
"&  c #D56334",
"*  c #DD6531",
"=  c #D66832",
"-  c #DB6B35",
";  c #D76739",
":  c #D86538",
">  c #DD6C3A",
",  c #DF7139",
"<  c #E1652F",
"1  c #E26632",
"2  c #E36A35",
"3  c #E96B37",
"4  c #E56D39",
"5  c #EB6D3B",
"6  c #E3733C",
"7  c #EB723D",
"8  c #F2733E",
"9  c #DF6F41",
"0  c #E26F40",
"q  c #E47342",
"w  c #ED7541",
"e  c #E67841",
"r  c #EC7B45",
"t  c #E7784A",
"y  c #EC7C4B",
"u  c #F27542",
"i  c #F27A45",
"p  c #F97B46",
"a  c #F57E4A",
"s  c #FA7E4A",
"d  c #EE7D50",
"f  c #EF8149",
"g  c #F4834D",
"h  c #F9804B",
"j  c #F8804C",
"k  c #F9814D",
"l  c #FA814C",
"z  c #FA804D",
"x  c #FB824D",
"c  c #FB814E",
"v  c #FA824E",
"b  c #FB834F",
"n  c #FC804D",
"m  c #FE824C",
"M  c #FE804E",
"N  c #FC834E",
"B  c #FC824F",
"V  c #F8854F",
"C  c #FF854F",
"Z  c #FC824D",
"A  c #EF8052",
"S  c #F08052",
"D  c #F08153",
"F  c #F18153",
"G  c #F38053",
"H  c #F48152",
"J  c #F18054",
"K  c #F58555",
"L  c #F48456",
"P  c #F58557",
"I  c #F68351",
"U  c #F98351",
"Y  c #FD8350",
"T  c #FF8350",
"R  c #F88650",
"E  c #FA8452",
"W  c #FB8553",
"Q  c #FC8450",
"!  c #FD8551",
"~  c #FE8550",
"^  c #FE8451",
"/  c #FF8451",
"(  c #FF8651",
")  c #FE8652",
"_  c #FF8752",
"`  c #FF8653",
"'  c #FF8753",
"]  c #FC8654",
"[  c #FF8754",
"{  c #FC8552",
"}  c #F78951",
"|  c #FA8852",
" . c #FF8854",
".. c #FF8955",
"X. c #FF8856",
"o. c #FF8956",
"O. c #FF8957",
"+. c #FF8A56",
"@. c #FF8B56",
"#. c #FF8A57",
"$. c #FF8B57",
"%. c #FB8C55",
"&. c #FE8C56",
"*. c #FF8C56",
"=. c #FF8C57",
"-. c #FD8E57",
";. c #FD8A55",
":. c #F68559",
">. c #F68658",
",. c #F78759",
"<. c #FA8758",
"1. c #FF8B59",
"2. c #FF8C58",
"3. c #FF8C59",
"4. c #FF8D59",
"5. c #FF8F59",
"6. c #FF8C5A",
"7. c #FF8D5A",
"8. c #FF8E5A",
"9. c #FE8F5A",
"0. c #FF8F5A",
"q. c #FF8E5B",
"w. c #FF8F5B",
"e. c #FA8A5C",
"r. c #FF8E5C",
"t. c #FF8F5C",
"y. c #FF8F5D",
"u. c #FC8D5F",
"i. c #FF8D5A",
"p. c #FF905B",
"a. c #FF915B",
"s. c #FF905C",
"d. c #FF905D",
"f. c #FF915D",
"g. c #FF915F",
"h. c #FF925E",
"j. c #FF935F",
"k. c #FF915C",
"l. c #FF9060",
"z. c #FF9062",
"x. c #FF9460",
"c. c #FF9561",
"v. c #FF9462",
"b. c #FF9662",
"n. c #FF9763",
"m. c #FF9165",
"M. c #FF9264",
"N. c #FF9261",
/* pixels */
"i 7 i w i v w 7 w w { 7 7 r 2 [ w 7 r 7 j b 6 7 w w +.7 i w w ] 6 i i 4 ] w 7 i 7 i ",
"7 % * * 7 i * * % 4 a 4 % 2 $ s 7 1 * * w i * 1 2 4 j * 2 % 4 b * 1 1 $ l 7 2 % * 6 ",
"+.j ] b ] 4.{ ] j j j.b v +.i f.] v ] a _ 4.l +.b b f.i ] v v f.j ] ] i j.+.v N a ] ",
"2 7 v w 2 4 4 v i 2 7 * w ] 1 6 2 w v 7 4 2 4 N 7 * 7 * v i 4 2 4 i l 2 w * 7 +.1 4 ",
"4 7 b i 4 4 7 v i 4 7 * i ] 2 7 4 u b 7 4 6 4 ] w 2 w 2 b j 6 2 4 a v 4 w 1 w =.4 7 ",
"_ a ] v N =.v b j v f.j l +.w p.] v N a ] =.a ] { v f.i _ v ] f.a { b i c.] l N a ] ",
"7 % % * 7 i * * % * a 2 % 1 + a 7 % * % 7 a * * * 4 s * * % 2 N * * * $ l 7 * % * 4 ",
"b i l a ] 4.a a a j f.a i { w f.j a v a +.4.i a a j f.i N a a p.i b M w p.j a N a l ",
"w 7 +.w 4 i 7 ] a w 7 7 s _ 7 w w r +.7 w 4 w =.i 6 w * { a w w w i +.7 a 7 i ] w w ",
"4 2 v 7 1 6 * a 7 4 2 * w a 2 4 1 4 v 4 4 % 4 j 4 % 7 * j r 2 * 4 4 a * 4 * 4 ] 2 2 ",
"] a 4.b v 4.a 1.b b +.a ] +.a +.v a 4.i =.N j +.s s 4.i =.] s +.N v =.u ] l v 4.s v ",
"i % 6 * w ] 2 * * w b 7 2 2 2 ] w 2 4 % a a 4 * 2 7 ] 4 2 % 4 +.5 % 6 & a i 2 * 4 7 ",
"a 2 w 7 w _ 7 7 7 i v w 7 w 4 ] i 4 r 2 b j 7 7 7 u ] 6 7 4 w +.7 4 i 4 { i 7 7 w w ",
"s a j.] a ] i t.+.v s i +.4.a / a v n.v _ a j f.N a ] w f.=.j v a U c.a { i j c.a s ",
"% * a 4 % * % i 6 * % + 7 r * * % 2 a * 1 $ % a 1 $ 1 + i w % $ * 2 i % * + 2 j % & ",
"_ a t.v s +.a 4.M M +.v +.4.a / ] M 4.i N l N p.l a +.i =.N l ] / v 4.i +.N M 4.s U ",
"i 5 5 5 u s 7 7 u u s w 5 5 5 ] 8 7 5 3 p M 3 5 8 8 N 3 7 3 8 %.5 5 8 3 s u u 0 5 u ",
"u 1 3 1 5 s 3 1 1 5 s 5 3 3 1 s 7 2 2 < 8 i 1 2 < 3 s 1 3 % 2 p 3 1 3 1 p u 5 1 3 u ",
"T s t.[ [ 1.N =.T T 1./ [ 1.v 4.1.1.5._ +.t.U t.%.{ c.I t.1.N =.] ] 4.M e.s O.O.s s ",
"+ : i 4 $ $ = 8 4 & + o 4 r % $ + > y 4 : & : y 6 & ; + y e : $ * 4 w % 1   4 a @ 1 ",
"r a 4.b r g r %.{ y r w | 4.r y y :.z.L d d d m.:.d A q e.,.d y i } =.w V 7 K t.u d ",
"K e f r g %.r r r g 5.g f g r p.L d d t :.u.y d d A m.y d t d z.y r g e p.V g r w a ",
"6 $ $ $ 4 r = $ $ > r , $ = $ y q & & & q y : & : > G ; ; & > d = $ % $ r 6 - + 4 q ",
"%.V =.| %.p.R %._ %.=.V | +.V c.K ] 6.] z.z.H 1.] K z.y 1.] ] m.{ | 4.g =.j [ t.a U ",
"4 4 [ w * 5 2 [ i 4 2 2 i v 4 2 4 7 g 3 1 4 4 _ 4 2 8 - h 8 6 4 5 w a 2 w 1 w s 2 5 ",
"4 4 / u 2 w 2 U w 5 4 2 i s 2 5 3 8 m 8 7 7 5 N 7 * 8 2 h i 4 3 5 u s 3 5 1 u T 4 5 ",
"+.a +.s ] f.s [ M N =.m / [ s t.h m C m _ &.s C M h =.8 %.C m %.s ] 4.s 1.s T 6.s T ",
"w O % @ 5 s & @ + 4 a 4 @ @ % a 2 $ % $ 7 8 % @ 1 3 p % < O 2 m 1 % 1 % a 5 3 @ 4 5 ",
"_ w x g v f.i a f l %.j a a i 4.m h h 8 / [ a [ a l 4.i h i h a.l a l i 4.v b i s s ",
"6 6 a.g 7 r 7 +.} 7 7 4 j +.e e 6 h =.g w q w t.r q i 0 _ b e 7 6 h N 7 w 4 g p.q w ",
"- - g , = , = f 6 = = $ 6 f = = & 9 f 9 ; ; ; d > : 9 & d y > & > 6 r = - # 6 g & - ",
"%.} p.g g a.g -.} } -.} =.5.g =.<.<.1.K 6.z.<.6.:.K z.d 6.] K z.R R 5.g p.} _ =.V ] ",
"8 < 2 2 7 8 3 2 2 5 i 3 < 2 2 h 2 2 2 < 8 p < < 3 5 s 1 2 < 3 M 2 3 1 O p 7 3 < 3 3 ",
"p 5 8 8 p m 8 8 8 8 C 8 8 8 8 m p 8 8 8 p M 8 8 5 8 _ 8 p 5 8 N 8 8 8 3 _ p 8 8 8 p ",
"h h C m h N a _ m h m h C %.i m h x _ g l l a =.a i _ i =.N j b i N _ p %.a j =.i h ",
"# - 8 6 % $ % e 6 % $ $ 7 f % $ $ 2 r 4 % $ $ a 4 $ * o r 8 = $ % 7 i $ * o - b O $ ",
"g f p.} g } g %.} g } f } 5.f } f g 5.g g I r 4.g f %.r 5.%.g } g =.=.r %.i V b.r g ",
"f 6 , 6 f } e 6 , r } e 6 6 , %.f 6 , , f } , 6 , r p.e 6 , 6 -.6 6 6 = %.g 6 , 6 r ",
"r - > - e g , ; - e g 6 > > , g q > > ; r f 2 > - 6 K > 6 = 6 K , , > & } r > = , 6 ",
"b V p.| { %.I 4.1.%._ V =.j.K =.I +.f.] %.4.d z.=.V =.r p.=.{ 4.g p.p.g f.j { z.a { ",
"1 1 a 5 % 5 * a 4 2 1 1 w i 1 3 1 3 s 1 0 1 4 s 4 1 1 1 a 4 3 1 2 4 a % 2 1 2 s 1 * ",
"w 0 T u 5 u 5 s i 7 w 5 i s 5 w 0 u s w u 5 u s u w w w s u w w w u T 5 u 5 i [ 5 8 "
};
