/* XPM */
static char *_a4b62bf464a4fe3e870340535f99513rr7BKzag8QDqRL2y[] = {
/* columns rows colors chars-per-pixel */
"16 16 70 1 ",
"  c None",
". c #3E2400",
"X c #462800",
"o c #4B2D00",
"O c #463005",
"+ c #4C3605",
"@ c #4C4611",
"# c #714600",
"$ c #7D5001",
"% c #716617",
"& c #726616",
"* c #736717",
"= c #835401",
"- c #956001",
"; c #966101",
": c #8B7918",
"> c #8B7B1A",
", c #B57902",
"< c #BA7D02",
"1 c #91801B",
"2 c #91811B",
"3 c #92801B",
"4 c #95821A",
"5 c #9A871B",
"6 c #BA8E0E",
"7 c #BE920F",
"8 c #B59A19",
"9 c #B99D1A",
"0 c #BE9F18",
"q c #D59203",
"w c #DE9703",
"e c #D99604",
"r c #DE9803",
"t c #E19A03",
"y c #E19B04",
"u c #D9B118",
"i c #EFA904",
"p c #F0A904",
"a c #FFB104",
"s c #FDB305",
"d c #FFB204",
"f c #FFB304",
"g c #FFB305",
"h c #FFB404",
"j c #FFB405",
"k c #FFB505",
"l c #FCB705",
"z c #FFB605",
"x c #FFB705",
"c c #FFB805",
"v c #FFB905",
"b c #FDB806",
"n c #FFB906",
"m c #FFBA06",
"M c #FFBD06",
"N c #FFBF06",
"B c #FCBB08",
"V c #FFBC09",
"C c #FFBE09",
"Z c #FFBE0C",
"A c #E7B913",
"S c #E7BA15",
"D c #F0BE13",
"F c #F0BE14",
"G c #FFC20A",
"H c #FFC00D",
"J c #FDC20D",
"K c #FFC50D",
"L c #FDC40E",
"P c #FDC60F",
/* pixels */
"                ",
"       .        ",
"     %6rrq;o    ",
"    8FVVlNfe=   ",
"   4PcfffflVeo  ",
"  @ucflVZcflf;  ",
"  >Pcfl75SlfNq  ",
"  1HfftX 5Zflw  ",
"  >Pllp$o9Vlcr. ",
"  *DffcprVffc<  ",
"   9GlfllflVp#  ",
"   %SGhcflln,   ",
"    %9DPHHe;    ",
"      *12>+     ",
"                ",
"                "
};
