/* XPM */
static char *_e2be76afb994b599307100fd19a8049R0V97irUD2Hts3mg[] = {
/* columns rows colors chars-per-pixel */
"42 42 155 2 ",
"   c None",
".  c #0F8AE2",
"X  c #128BE2",
"o  c #138BE2",
"O  c #138CE2",
"+  c #138DE2",
"@  c #148CE2",
"#  c #158CE2",
"$  c #158DE2",
"%  c #168DE2",
"&  c #158EE2",
"*  c #168EE2",
"=  c #178EE2",
"-  c #178FE2",
";  c #178FE3",
":  c #198EE2",
">  c #1A8FE2",
",  c #1790E3",
"<  c #1692E3",
"1  c #1792E3",
"2  c #1793E4",
"3  c #1890E3",
"4  c #1891E3",
"5  c #1892E3",
"6  c #1992E3",
"7  c #1993E3",
"8  c #1E90E2",
"9  c #1993E4",
"0  c #1994E4",
"q  c #1A94E4",
"w  c #1A95E4",
"e  c #1A96E4",
"r  c #1B96E4",
"t  c #1B97E4",
"y  c #1A97E5",
"u  c #1B97E5",
"i  c #1B98E5",
"p  c #1B99E5",
"a  c #1C98E5",
"s  c #1C99E5",
"d  c #2091E2",
"f  c #2593E2",
"g  c #2092E4",
"h  c #2193E5",
"j  c #2393E4",
"k  c #2895E2",
"l  c #2995E2",
"z  c #2896E3",
"x  c #2A96E2",
"c  c #2F9FE5",
"v  c #3098E2",
"b  c #3198E2",
"n  c #3399E2",
"m  c #309AE5",
"M  c #319BE6",
"N  c #399CE3",
"B  c #3B9DE3",
"V  c #3C9EE3",
"C  c #35A0EB",
"Z  c #36A0EB",
"A  c #38A1EB",
"S  c #39A2EB",
"D  c #3AA2EB",
"F  c #3CA3EB",
"G  c #3FA4EB",
"H  c #409FE3",
"J  c #42A0E3",
"K  c #48A2E3",
"L  c #49A3E3",
"P  c #4BA3E3",
"I  c #4DA5E3",
"U  c #4AA6E7",
"Y  c #4DA5E4",
"T  c #40A5EB",
"R  c #47A7EB",
"E  c #4AA8EA",
"W  c #4FA9EA",
"Q  c #50A6E3",
"!  c #53A7E3",
"~  c #55A8E3",
"^  c #5AAAE3",
"/  c #5BABE3",
"(  c #5CABE3",
")  c #5DABE3",
"_  c #59AEEA",
"`  c #64AEE3",
"'  c #68B0E3",
"]  c #6AB1E3",
"[  c #6CB1E3",
"{  c #6DB2E3",
"}  c #62B2EA",
"|  c #65B3E9",
" . c #71B4E3",
".. c #75B5E3",
"X. c #77B6E3",
"o. c #78B6E1",
"O. c #79B7E3",
"+. c #75BAE5",
"@. c #76B9E9",
"#. c #7EBDE9",
"$. c #A4A7AA",
"%. c #94B9D4",
"&. c #82BBE4",
"*. c #88BCE2",
"=. c #8ABFE4",
"-. c #8BBFE4",
";. c #8EC0E4",
":. c #94C2E4",
">. c #9DC6E4",
",. c #9AC7E8",
"<. c #9AC8E8",
"1. c #A2C7E1",
"2. c #A1C8E4",
"3. c #A2C9E4",
"4. c #A8CDE7",
"5. c #ABCEE7",
"6. c #ACCDE4",
"7. c #B1CFE4",
"8. c #B5D1E4",
"9. c #B6D1E4",
"0. c #B7D2E5",
"q. c #BBD3E4",
"w. c #BFD5E4",
"e. c #BED5E5",
"r. c #C1C4C6",
"t. c #C3D7E4",
"y. c #C7D8E5",
"u. c #C7D9E6",
"i. c #C9D9E5",
"p. c #CAD9E5",
"a. c #CBDAE5",
"s. c #CBDBE6",
"d. c #CFDCE5",
"f. c #D0DCE5",
"g. c #D5DEE5",
"h. c #D7E0E5",
"j. c #D8E0E5",
"k. c #DAE0E5",
"l. c #DCE2E5",
"z. c #DDE2E5",
"x. c #DEE2E5",
"c. c #DFE3E5",
"v. c #E0E3E5",
"b. c #E1E3E5",
"n. c #E1E4E5",
"m. c #E2E4E5",
"M. c #E3E4E5",
"N. c #E4E4E5",
"B. c #E4E5E5",
"V. c gray90",
"C. c #E6E5E5",
"Z. c #E6E6E5",
"A. c #E7E6E5",
"S. c #E8E6E5",
"D. c #E9E7E5",
/* pixels */
"                                          s s i s s s s 4 -                         ",
"                s s s s s s s s s s s s s s u - 4 u s s q - # - -                   ",
"                s s s s s s s s s s s s s s 4 - - 4 u s u - - # # # -               ",
"                  s s s s s s s s s i s i u u - - - u s u - - # - # # -             ",
"                    s s s s s s s 4 - 4 s s i 4 - # - 4 - # # - ; j 8 ; -           ",
"                    s u 4 u s s u - # - u s i 2 # # - - # - # # m %.3.m X -         ",
"                  s u - - 4 u s s 4 - # - 4 4 - X X X X X X X X L $.r.W X -         ",
"                s s u - - - u s s u - X # 8 n L ) [ X.O.X. .` ! P *.O.j # X X       ",
"                s s s 4 # - ; u i u z ~ =.0.f.x.N.S.S.S.V.S.V.m.c.i.0.3.=.{ ! N     ",
"              : u i s i ; - # 2 c +.e.m.S.D.D.B.g.c.V.V.V.V.V.V.V.V.S.S.S.V.v.f.0.6.",
"            - # ; u s s u X : ( e.V.S.V.v.s.4.#.| u.V.V.V.V.V.V.V.V.V.V.V.V.V.S.S.  ",
"            # - - u s s 4 l ;.c.V.V.V.V.<.E F C } c.V.V.V.V.V.                      ",
"          i 4 - # - 4 2 V 7.V.V.V.V.V.V.@.M F F <.V.V.V.                            ",
"          s 4 # # # X P t.S.V.V.V.V.V.h._ D F T                                     ",
"        u i 4 # - # P p.S.V.V.V.V.V.S.5.T D D                                       ",
"        - - - - # H y.S.V.V.V.V.V.V.  R D D D                                       ",
"        # # # - m e.D.V.V.V.V.        D D D                                         ",
"      - - - # 8 >.V.V.V.V.V.        D D                                             ",
"      - # # # ' m.V.V.V.                                                            ",
"      # - # n i.V.V.V.                                                              ",
"      - - # &.V.V.V.                                                                ",
"      - # b p.V.V.                                                                  ",
"      - - ` V.V.                                                                    ",
"      # : 3.S.V.                                                                    ",
"      - l i.S.                                                                      ",
"      O V g.S.                                                                      ",
"      O ~ v.                                                                        ",
"      X ) V.                                                                        ",
"      X ^ v.                                                                        ",
"      X I c.                                                                        ",
"      X N g.                                                                        ",
"        f t.S.                                                                      ",
"        - :.V.V.V.V.V.V.V.                                                          ",
"      - # ^ v.V.V.V.V.V.V.V.                                                        ",
"      - # f e.S.V.V.                                                                ",
"    # - - - ` S.                                                                    ",
"    # - # #                                                                         ",
"  - # - -                                                                           ",
"  # # -                                                                             ",
"- -                                                                                 ",
":                                                                                   ",
"                                                                                    "
};
