/* XPM */
static char *_1c4879bec40472dc2c7fc1825aa60cfQn0EjDGYNtQpoViq[] = {
/* columns rows colors chars-per-pixel */
"16 16 70 1 ",
"  c None",
". c #138CE2",
"X c #148DE2",
"o c #158DE2",
"O c #168DE2",
"+ c #158EE2",
"@ c #178FE2",
"# c #178FE3",
"$ c #188EE3",
"% c #1690E3",
"& c #1692E3",
"* c #1793E4",
"= c #1A90E3",
"- c #1992E3",
"; c #1F91E2",
": c #1D92E3",
"> c #1893E4",
", c #1995E4",
"< c #1A94E4",
"1 c #1A95E4",
"2 c #1A96E4",
"3 c #1B96E4",
"4 c #1B97E4",
"5 c #1B97E5",
"6 c #1C98E5",
"7 c #1C99E5",
"8 c #2191E1",
"9 c #2393E2",
"0 c #2593E2",
"q c #2C96E2",
"w c #2D9AE3",
"e c #2D9CE4",
"r c #3199E2",
"t c #399CE3",
"y c #3A9DE3",
"u c #3F9EE3",
"i c #39A2EB",
"p c #3CA3EB",
"a c #55A5DF",
"s c #68ABDB",
"d c #43A0E3",
"f c #54A7E3",
"g c #59AEE5",
"h c #5DB0EA",
"j c #66AFE3",
"k c #76B6E3",
"l c #85C0E8",
"z c #92C2E4",
"x c #9CC6E4",
"c c #9DC6E4",
"v c #9EC7E4",
"b c #9FCAE8",
"n c #A1C8E4",
"m c #A9CCE4",
"M c #AECEE4",
"N c #B6D1E5",
"B c #B7D2E4",
"V c #B9D2E4",
"C c #C1D7E5",
"Z c #C5D9E6",
"A c #CADAE5",
"S c #CFDCE5",
"D c #D6DEE5",
"F c #D9E0E5",
"G c #E0E3E5",
"H c #E2E4E5",
"J c gray90",
"K c #E7E6E5",
"L c #E8E6E5",
"P c #E9E7E5",
/* pixels */
"   75775224@    ",
"    55552o&o80  ",
"   7333=wpuysa$ ",
"   3==gcNVFDDNcn",
"  o&ezGZhnLK    ",
"  %qmLLli       ",
" o;cLL p        ",
" .jH            ",
" 9M             ",
" dA             ",
" f              ",
" f              ",
" rVKK           ",
" #k             ",
"o#              ",
"                "
};
