/* XPM */
static char *_b5c9f01f5944722d215627fff89d561OnB049SGwXd5xqfw[] = {
/* columns rows colors chars-per-pixel */
"10 16 22 1 ",
"  c #573417",
". c #71441E",
"X c #6D411C",
"o c #6D421C",
"O c #945927",
"+ c #8E5525",
"@ c #8F5625",
"# c #885223",
"$ c #895224",
"% c #6E421D",
"& c #8A5324",
"* c #8E5625",
"= c #915726",
"- c #6F431D",
"; c #905726",
": c #5B3718",
"> c #4E2F14",
", c #8B5324",
"< c #844F22",
"1 c #673E1B",
"2 c #925826",
"3 c white",
/* pixels */
" .XooooX. ",
".O+@@@@+O.",
"X+#$$$$#+X",
"%@$&&&&$@%",
"%@$&&&&$@%",
"%@$&&&&$@%",
"%@$&&&&$*o",
"%@$&&&&$=-",
"%@$&&&$;:>",
"%@$&&&&,<1",
"%@$&&&&$2-",
"%@$&&&&$*o",
"%@$&&&&$@%",
"X+#$$$$#+X",
".O+@@@@+O.",
" .XooooX. "
};
