/* XPM */
static char *_30aa7ab78af40ffa8c655478e460b39jn74u1BXv8DnLFaZ[] = {
/* columns rows colors chars-per-pixel */
"16 16 63 1 ",
"  c #6AA233",
". c #75B339",
"X c #72AE37",
"o c #73B038",
"O c #70AB36",
"+ c #75B239",
"@ c #6FAA36",
"# c #77B73A",
"$ c #7FC13E",
"% c #77B63A",
"& c #72AF38",
"* c #6FAB36",
"= c #71AC37",
"- c #76B539",
"; c #74B238",
": c #74B138",
"> c #80C23E",
", c #7BBD3C",
"< c #79B83B",
"1 c #7DBF3D",
"2 c #7DBE3D",
"3 c #71AD37",
"4 c #7EC13D",
"5 c #7BBC3C",
"6 c #7CBE3D",
"7 c #7ABA3B",
"8 c #7EC03D",
"9 c #80C33E",
"0 c #7CBD3C",
"q c #79B93B",
"w c #70AC37",
"e c #6EA835",
"r c #76B439",
"t c #82C63F",
"y c #7AB93B",
"u c #83C840",
"i c #7ABB3C",
"p c #7DC03D",
"a c #6EA936",
"s c #7CBE3C",
"d c #78B73A",
"f c #7FC23E",
"g c #73AF38",
"h c #70AC36",
"j c #74B239",
"k c #84C940",
"l c #6DA735",
"z c #78B83A",
"x c #7ABB3B",
"c c #68A033",
"v c #6CA634",
"b c #6BA434",
"n c #73B138",
"m c #77B53A",
"M c #75B439",
"N c #78B83B",
"B c #80C43E",
"V c #83C73F",
"C c #76B53A",
"Z c #6DA635",
"A c #81C43E",
"S c #6AA334",
"D c white",
/* pixels */
" .XoXO+@#$%&*=-@",
"-;:>,X<%12O3=.4%",
"5%5167181907q3we",
"3195r5ty5u1ip0ra",
"w5s0dq,2d01f7:g7",
"o33Oh@jdd.jr@&1k",
"lo&O%54%zqgq5507",
"w52sdq02ds1fx:&7",
"o33Ow@+zz.jr*&1k",
"cv b&%%OXd.dng-m",
"am.5#@%&51&3@.4M",
"0:.41ri618;j.3-g",
"r5fsN0B50V95,C&Z",
"O1$5z5f5795s8i.g",
"o%zd&o%szq00:O-A",
"abSS::m:;X@r3%Bk"
};
