/* XPM */
static char *Y29pbi1tYXJpby1jb2luLXBlcmxlci1iZWFkcy0xMTU2MzA1MTkyOHl6aWNzcnB6ejM_[] = {
/* columns rows colors chars-per-pixel */
"42 42 115 2 ",
"   c #000000",
".  c #0E0E00",
"X  c #0C0C0C",
"o  c #131300",
"O  c #1C1C00",
"+  c #151515",
"@  c #1C1C1C",
"#  c #222200",
"$  c #2C2C00",
"%  c #323200",
"&  c #242414",
"*  c #242424",
"=  c #2A2A2A",
"-  c #383821",
";  c #343434",
":  c #3B3B38",
">  c #464600",
",  c #535300",
"<  c #5A5A00",
"1  c #656500",
"2  c #757500",
"3  c #464641",
"4  c gray29",
"5  c #555555",
"6  c #838300",
"7  c #969600",
"8  c #838314",
"9  c #A3A300",
"0  c #A9A900",
"q  c #B7B700",
"w  c #BABA00",
"e  c #B5B50C",
"r  c #B7B71D",
"t  c #C3C300",
"y  c #CACA00",
"u  c #D3D300",
"i  c #DBDB00",
"p  c #E3E300",
"a  c #E9E900",
"s  c #F4F400",
"d  c #FFFF00",
"f  c #F3F30C",
"g  c #FFFF0C",
"h  c #FFFF16",
"j  c #FFFF18",
"k  c #FFFF26",
"l  c #FFFF2A",
"z  c #FDFD35",
"x  c #FFFF3A",
"c  c #838376",
"v  c #969670",
"b  c #FFFF43",
"n  c #F6F64B",
"m  c #F5F552",
"M  c #FFFF56",
"N  c #F2F262",
"B  c #E4E47D",
"V  c #828285",
"C  c #8E8E8E",
"Z  c #939393",
"A  c #9B9B9B",
"S  c gray64",
"D  c #AAAAAA",
"F  c #B3B3A3",
"G  c #BABABB",
"H  c #FFFF8B",
"J  c #FFFF9D",
"K  c #C9C9B7",
"L  c #DFDFB3",
"P  c #DEDEBB",
"I  c #FFFFB7",
"U  c #C3C3C4",
"Y  c #C8C8C8",
"T  c #D5D5C2",
"R  c #D7D7CB",
"E  c #D5D5D5",
"W  c #D9D9D6",
"Q  c #DCDCDD",
"!  c #FFFFC5",
"~  c #FFFFCB",
"^  c #E6E6D0",
"/  c #EAEAD6",
"(  c #FFFFD7",
")  c #F1F1DC",
"_  c #FEFED8",
"`  c #FFFFD8",
"'  c #FFFFD9",
"]  c #FFFFDB",
"[  c #FFFFDD",
"{  c gray88",
"}  c #E1E1E1",
"|  c #E2E2E2",
" . c #E4E4E1",
".. c #E4E4E8",
"X. c #EAEAEC",
"o. c #FEFEE5",
"O. c #FFFFE5",
"+. c #FFFFE7",
"@. c #FFFFE8",
"#. c #FFFFE9",
"$. c #FFFFEA",
"%. c #FFFFEC",
"&. c #FFFFED",
"*. c #F2F2F3",
"=. c ivory",
"-. c #FFFFF3",
";. c #FFFFF6",
":. c #FDFDFD",
">. c #FFFFFC",
",. c #FEFEFE",
"<. c #FFFFFE",
"1. c #FEFEFF",
"2. c white",
"3. c None",
"4. c black",
/* pixels */
"3.3.3.3.3.3.3.3.4.4.4.4.                                  @ Q 2.2.3.3.3.3.3.3.3.3.3.",
"3.3.3.3.3.3.3.3.4.4.4.4.                                  @ } 2.2.3.3.3.3.3.3.3.3.3.",
"3.3.3.3.3.3.3.3.4.4.4.4.    X 4 5 5 5 5 5 5 5 4 X         + Z D S 3.3.3.3.3.3.3.3.3.",
"3.3.3.3.3.3.                + W 2.:.2.2.:.2.2.} *                     @ Q 2.2.3.3.3.",
"3.3.3.3.3.3.                @ W 2.;.2.;.2.2.:.} =                     @ Q 2.2.3.3.3.",
"3.3.3.          X C D D D S F N M M M M M M M n e 0 0 9 0 7 O         @ Q 2.2.3.3.3.",
"3.3.3.          + Q 2.2.2.2.%.k d d d d d d d d d d d d d p #         @ } 2.2.3.3.3.",
"3.3.3.      * = : P ( ( ( ( ! b l l l l l l l k i i i d d p > $ $     @ G W E 3.3.3.",
"3.3.3.    + U X./ z h h h h l ~ @.@.+.+.@.@.%.^ - o $ i d d a a y #     + @ + 3.3.3.",
"3.3.3.    @ E 2.@.k d d d d h _ 2.2.2.2.2.2.2...*   O i d d d d p #           3.3.3.",
"3.3.3.    + E 2.@.k d d d d j _ 2.-.J H H H H B &   O i d d d d i #           3.3.3.",
"          + E 2.@.l d d d d j _ 2.+.k d d d d p #   O i d d d d p #           3.3.3.",
"      X X * R ;.[ k d d d d j _ 2.o.k d d d d p $   O i d d d d p $ . .       3.3.3.",
"    X S U K m x z g d d d d j _ 2.+.k d d d d p #   O i d d d d d y t 0 O           ",
"    + W 2.@.l d d d d d d d j _ 2.+.k d d d d p #   O i d d d d d d d p #           ",
"    + E 2.@.l d d d d d d d j _ 2.+.k d d d d p #   O i d d d d d d d p O           ",
"    + E 2.@.l d d d d d d d j _ 2.o.k d d d d p $   O i d d d d d d d p O           ",
"    + E 2.@.l d d d d d d d j _ 2.o.k d d d d p #   O i d d d d d d d p #           ",
"    + E 2.@.l d d d d d d d j _ 2.+.k d d d d p $   O i d d d d d d d p O           ",
"    + E 2.+.l d d d d d d d j _ 2.+.k d d d d p #   O i d d d d d d d i #           ",
"    + E 2.+.l d d d d d d d j _ 2.o.k d d d d p #   O i d d d d d d d p #           ",
"    + E 2.+.l d d d d d d d j _ 2.o.k d d d d p $   O i d d d d d d d p O           ",
"    + E 2.@.l d d d d d d d j _ 2.o.k d d d d p #   O i d d d d d d d p #           ",
"    + E 2.@.l d d d d d d d j _ 2.o.k d d d d p #   O i d d d d d d d i #           ",
"    + E 2.+.l d d d d d d d j _ 2.+.k d d d d p $   O i d d d d d d d i #           ",
"    + E 2.+.l d d d d d d d j _ 2.+.k d d d d p #   O i d d d d d d d p #           ",
"    + E 2.@.l d d d d d d d j _ 2.o.k d d d d p $   O i d d d d d d d p O           ",
"    + E 2.@.l d d d d d d d j _ 2.o.k d d d d p #   O i d d d d d d d p #           ",
"    + D E T n l l g d d d d j _ 2.o.k d d d d p $   O i d d d d d i y w O           ",
"      X + * R %._ k d d d d j _ 2.o.k d d d d p #   O i d d d d p % . o       3.3.3.",
"          + E 2.@.l d d d d j _ 2.@.k d d d d p #   O i d d d d i #           3.3.3.",
"3.        + E 2.@.l d d d d f v V c 8 6 6 6 6 2 o   O i d d d d p #           3.3.3.",
"3.3.3.    + E 2.@.l d d d d p $                     O i d d d d p #           3.3.3.",
"3.3.3.    + Y *.) z g h d d p % . . . . o . . . . . $ i d d s a i O           3.3.3.",
"3.3.3.    X = ; 3 L ~ I k d d u y y y y y y y y y y y d d a , % %       3.3.3.3.3.3.",
"3.3.3.          + W 2.%.k d d d d d d d d d d d d d d d d p O           3.3.3.3.3.3.",
"3.3.3.          X A G F r w w s d d d d d d d d w w q q w 9 O           3.3.3.3.3.3.",
"3.3.3.3.3.3.      X X       # i d d d d d d d p $   .   .               3.3.3.3.3.3.",
"3.3.3.3.3.3.                O i d d d d d d d p $                       3.3.3.3.3.3.",
"3.3.3.3.3.3.3.3.3.3.3.3.    . , 1 1 1 1 1 1 1 < .           3.3.3.3.3.3.3.3.3.3.3.3.",
"3.3.3.3.3.3.3.3.3.3.3.3.                                    3.3.3.3.3.3.3.3.3.3.3.3.",
"3.3.3.3.3.3.3.3.3.3.3.3.                                    3.3.3.3.3.3.3.3.3.3.3.3."
};
