/* XPM */
static char *NTE2ajJMWU8tQkwuX0FDXw__[] = {
/* columns rows colors chars-per-pixel */
"42 42 236 2 ",
"   c #0E0000",
".  c #140200",
"X  c #1A0400",
"o  c #1C0B00",
"O  c #240601",
"+  c #220C01",
"@  c #270B06",
"#  c #251202",
"$  c #291401",
"%  c #2A1807",
"&  c #371B06",
"*  c #331816",
"=  c #2E0D08",
"-  c #392608",
";  c #392516",
":  c #3E2423",
">  c #472804",
",  c #532B01",
"<  c #5A2F07",
"1  c #5B380D",
"2  c #452D1A",
"3  c #483219",
"4  c #5C3B1C",
"5  c #563717",
"6  c #4D330E",
"7  c #64350C",
"8  c #633B14",
"9  c #693D14",
"0  c #663D1B",
"q  c #6B3D1A",
"w  c #653512",
"e  c #452E26",
"r  c #4D3A22",
"t  c #4B3727",
"y  c #573C29",
"u  c #583D34",
"i  c #673F20",
"p  c #5A4213",
"a  c #5E450F",
"s  c #644216",
"d  c #6B4116",
"f  c #6C421C",
"g  c #694A1C",
"h  c #72451D",
"j  c #714A1C",
"k  c #774718",
"l  c #6C521E",
"z  c #594429",
"x  c #5B4635",
"c  c #6B4523",
"v  c #644A24",
"b  c #6C4D25",
"n  c #664729",
"m  c #734623",
"M  c #7B4C23",
"N  c #724D2A",
"B  c #764D29",
"V  c #68552A",
"C  c #745224",
"Z  c #7B5224",
"A  c #75532B",
"S  c #745929",
"D  c #7C5A2D",
"F  c #7A5527",
"G  c #6A4A34",
"H  c #685438",
"J  c #755233",
"K  c #765932",
"L  c #7B5B33",
"P  c #755A3B",
"I  c #7E5C3C",
"U  c #775539",
"Y  c #796439",
"T  c #7E602A",
"R  c #684C41",
"E  c #765A43",
"W  c #7A684B",
"Q  c #7E6B51",
"!  c #83552A",
"~  c #855D2B",
"^  c #885A2B",
"/  c #835C33",
"(  c #875935",
")  c #935E35",
"_  c #856234",
"`  c #8B6234",
"'  c #84643D",
"]  c #8C633A",
"[  c #8B6B3A",
"{  c #93643B",
"}  c #956A3D",
"|  c #956738",
" . c #8E713A",
".. c #94733C",
"X. c #87652E",
"o. c #805F40",
"O. c #846343",
"+. c #8C6B44",
"@. c #8A6B4A",
"#. c #856748",
"$. c #946D44",
"%. c #9A6C43",
"&. c #936946",
"*. c #847244",
"=. c #8A7449",
"-. c #93744C",
";. c #9A744A",
":. c #9A7B4C",
">. c #987645",
",. c #896C56",
"<. c #897456",
"1. c #977A57",
"2. c #A26E46",
"3. c #A37749",
"4. c #A47B52",
"5. c #B17F5A",
"6. c #9A7D64",
"7. c #837061",
"8. c #9B8457",
"9. c #9A874F",
"0. c #A48454",
"q. c #A6865A",
"w. c #B28B59",
"e. c #A9925C",
"r. c #B38E58",
"t. c #9C8967",
"y. c #AB8B69",
"u. c #A99467",
"i. c #B2946D",
"p. c #B49D6C",
"a. c #B89866",
"s. c #A59376",
"d. c #AB9375",
"f. c #B79D7C",
"g. c #BA9B7E",
"h. c #B69B74",
"j. c #A78D76",
"k. c #BAA36C",
"l. c #BCA577",
"z. c #C19B71",
"x. c #C7A977",
"c. c #CAB37E",
"v. c #CEAD75",
"b. c #B59E85",
"n. c #AD9B85",
"m. c #BBA386",
"M. c #B4A18B",
"N. c #BBA48C",
"B. c #BAA789",
"V. c #B7A393",
"C. c #BEAB92",
"Z. c #BDA797",
"A. c #BBADA0",
"S. c #C2A584",
"D. c #C2AA8B",
"F. c #C5AA8B",
"G. c #CDB589",
"H. c #D5B88A",
"J. c #C4AC93",
"K. c #C9AE90",
"L. c #C3AD9A",
"P. c #C1A795",
"I. c #CCB294",
"U. c #C5B29D",
"Y. c #CAB49B",
"T. c #C5B296",
"R. c #D4BD9C",
"E. c #DABC9A",
"W. c #D4B795",
"Q. c #D1AF8A",
"!. c #CBB5A2",
"~. c #CCBAA5",
"^. c #CDBDAC",
"/. c #C6B5A6",
"(. c #D5BCA4",
"). c #D1BDAA",
"_. c #D6BBA4",
"`. c #CEBBB0",
"'. c #D0BFB4",
"]. c #C3AFA4",
"[. c #DBC39C",
"{. c #DBC497",
"}. c #D6C18C",
"|. c #E3CB9D",
" X c #D3C2AB",
".X c #DBC6A6",
"XX c #CFC1BA",
"oX c #CFC1B3",
"OX c #D3C3B4",
"+X c #DAC5B4",
"@X c #DBCAB5",
"#X c #D4C5BB",
"$X c #D8C6BA",
"%X c #D6C8BE",
"&X c #DBCBBC",
"*X c #E4C9AB",
"=X c #E1CBB6",
"-X c #E3CDB9",
";X c #EBD5B5",
":X c #F2D5B7",
">X c #CFC3C3",
",X c #D3C5C4",
"<X c #D5C9C5",
"1X c #DBCCC4",
"2X c #D6CCCA",
"3X c #DCCDCA",
"4X c #D8C7C0",
"5X c #DED0C6",
"6X c #DED1CB",
"7X c #DED3D1",
"8X c #E1CEC5",
"9X c #E1CFC9",
"0X c #E3D2C5",
"qX c #E9D2C3",
"wX c #E3D4CC",
"eX c #E8D6CB",
"rX c #EDDBCB",
"tX c #E8D9C9",
"yX c #F2DEC6",
"uX c #E4D6D2",
"iX c #E5D9D5",
"pX c #EBDCD4",
"aX c #E6DCDA",
"sX c #EADEDA",
"dX c #E8D7D2",
"fX c #F1DFD3",
"gX c #F4E1CB",
"hX c #EDE2DB",
"jX c #ECE0D3",
"kX c #F3E3D4",
"lX c #F3E4DA",
"zX c #FEEDDC",
"xX c #FBE8D7",
"cX c #EEE5E2",
"vX c #F6E9E6",
"bX c #FEF7EB",
/* pixels */
"6XiXuXwXwXuXpXuXsXuXuXuXiX7X2X7X2XwX1XwX%X1X1X1X1X1X1X1X0X1X&XtX&XtXjXtXwXeXdXeXeXeX",
"7X6XiXiXiXpXpXuX6XiXaXuXiXaXuX3XtX5X0X1X0X0X1X0X9X$X1X9X#X5XuXoX&X0X5X5X9XwXeXwXeXeX",
"iX7X7XiXaXaXiXiXiXpXpXwX3X1X1X&X XU.~.U.Y.~.A.oX$X@X1X9X5X3X5XwX5X&X1X6X9X9XwXeXeXeX",
"iX6X7XiXiXiXiXpXhXwX0XeX8X^.L.B.K.K.D.I.B.T.T.@X=XrXtX0XuX3XXX2X%X%X5XwXwX8X9XdXwXeX",
"cX7XaX7XiXiXaXhXpXtX&X~.J.b.D.I.F.H.H.|.{.W.{.[.;XyXzXxXpXvXvX3X1X$X%X1X3X1X3X0X0XwX",
"7X7XaXhXiXsXhXjXwX&X!.N.S.K.E.H.Q.p.0.>.0.0.k.k.{.;XgXxXlXlXvXvXrX5X%X#X1XuX3X3X5X0X",
"7XaXaX7XjXhXiX5XoXZ.b.K.E.Q.w.$.k j Z k l T a a p 9.B.yXbXbXlXvXlXjX5X1X<X3X3X3X5X5X",
"7XcXcX7XjXhXwXoXb.C.E.[.y.9 < k } %.>.0.F x. .e.9.t.8.W s.gXbXrXkXxXkX1X,X,X,X1X3X5X",
"aXaXcXaXpXjXoXM.M.*XS.K 1 ] 3.! %.B F F l  .X.k.e.p.|.V V s.@XgX@X=XzXlX&X<X<X<X<X1X",
"aXaXcXcXtX$Xn.Y.*Xd.A s ] F ` 9 9 0 B $.g S 9.k.k.c.k.p.l.*.9.C.gXU. XzXkX%X3X#X%X&X",
"hXaXcXhX8XC.b.R.y.b ' _ 3.q , w 5 4 ( d.b l 8.u.l.l.}.{.l.a.*.Y l..X[.-XzXeX#X<X%X<X",
"aXaXhX5X!.b.E.i.1 C a.m q 0 1 < i G E #.v z t.p.l.}.l.c.e.k.a.> C H.=XI.qXxXOX1X%X#X",
"aXcXhXoXN.K.h.! ( } ^ f A B / y E - @ P H   <.Y.D.G.h.p.c.r.r.r.F F {.|.Y.fXeX#X#X#X",
"aXcXwX/.K.E.Z Z w.^ 7 / &.I G U E t ; Q H o s.s.s.h.h.;.x.9.^ v...< z.:XF.=XrX#XXX#X",
"hXcX%XZ.I.h.9 | ^ d ! d 0 U 3 n 3 ; % H r   x r W d.1.&.a.2.| ^ 3.X.;.H.E.Y.0X0XoXXX",
"cXcX`.C.Q.A M 2.! 7 9 k J n = @ o . . # o o   X + z E +.w.| ^ X.r.z.Z h.:XP.qX0XoXoX",
"bX3X`.J.z.h { ! q q N n N N ( G % o # H Y p.W #     e R y./ ] ~ ~ 0.~ 0.=XI.).qXOXOX",
"cX9X).I.y., ` ^ < q G i c 8 M -.o . - =.e.*.Q x % # * E 1.&.` ~ j x.:.& W.(.B.tX#XOX",
"cX9XY.I.L = Z h q c c i n 0 m $.% o 6 S Y  .V % . . # @.0.X.~ | F 9.[ $ S.[.M.@X#XOX",
"vX4X].K.m , { h m i i c B m m B % % - 9.W V r % # # - =.9.D X.X.>.X.:.r.R..XC.^.$XOX",
"cX#X!.K.v 9 { h m q ! o.B ( ) U -   % - - o       z <.s.=.b O.&.X. .v.|.{.{.f. X@XOX",
"fX&X).F.0 9 ^ d m q ! ( i &.4.O.o # o % 3 ; x ;   . * W H K L [ 9. .c.}.G. Xf. X+XOX",
"pX-X).I.J f ) ! ! q w i q &.%.U # . % H Y <.s. X:     2 y Y 0.H.}.e.l.}.{..XB. X+XoX",
"lXrXY.I.( w ( M ! q w q B &.%.O.# . % z 8.W t.Q x . . # z -.r.k.k.v...p.{. XC. XoX^.",
"kX0X~._.1.N 3.{ ! %.( q w ! ( o.#   ; z z P 3 y :     # t > S c.v.r.e.}.[.I.C..X^.^.",
"fXqX+X(.d.b ' ;.) ) ! 5.{ w m &.%   o 7.<.z H t % o   ; x x v 1 S  . .u.|.D.C. XoX`.",
"pXeX0X).K.U A 4.%.) ) 2.%.2., &   X @ : : * ; .   o ; R u u & O [ 0.Y -.{.m.C.@XoXoX",
"pXeX0X X+X6.I ;.%.) ) 2.) 2.> O % # O X *   @ & ; 3 z 2 t E ; > -.-.K i.[.A.A.@XoXOX",
"pXeXeX$X+Xm.@.B ] %.! 3.3.] / v Y V o P ,.X n @.S 6 n z E ,.J -.-.S -.Q.D.Y.~.$X#X%X",
"dXdXdXwX).!.6.0 ) 2.) | } $.0.:.9.l . E U X B b S Y P E &.G c $.' K b.F.N.U.$X#X1X1X",
"uXuXsXeX8X_.F.O.M M 2.} ` / +.p.k.V - #.U > C F v 6 i G 3 I a.A c 1.K.D.Y.).OXOX5X2X",
"7XuXsX9XfX=X=XS.q 9 ^ | 4.4.0.9.i.8.O.-.' L S l a z 3 y ,.O.4 _ ,.W.P.N.^.-XoX5X5X6X",
"2X7X7XuXdXqX+X_.g.J w q %.3.z.x.w.q.( 4.' s 1 s p s U O.+.( b O.M.V.U.~.OX5X&X<X5XwX",
"2X2X7X7XdXeX8X=X*Xg.@.w ( ] 3.0.x.a.( ' A F D A L L ' S U o.-.b.V.A./.oX%X&X5X1X5XwX",
"2X2X2X3X9X9XeXqX!._.W.4.+.b k 7 l >.$.-._ -.$.K -.Y n 4 o.y.z.P.A./.XX1X1X1X5X5XwXwX",
"2X2X2X3X1X9X8XqXqX_.-X*XS.y.q.C > C C A b / b > 4 G #.<.j.P.P.L.oXoX1X5X1X1X6XwXuXwX",
"2X2X2X,X3X4X1X8XqXfX+X_.:X_.g.S.8.q.-.*.' @.#.I E 6.b.Z.P.P.`.'.&X&X1X5X1X5XwXwXuXuX",
",X2X2X2X<X,X4X4X9XeXfXxXqX=X=X_.m.l.h.h.u.j.j.b.L.Z.V.Z./.`.'.4X5X5X1X5X5X5XwXwXdXiX",
",X,X,X,X,X,X,X4X8X4X3X9XeXfXrX-X+XK.m.M.C.C.N.Z.V./.].'.9X9X9X9X1X5X1X5XwX6XwXuXuXuX",
"2X,X,X2X2X2X,X,X,X4X4X8XwXdXwXfXqX@X$X).OXOX`.'.'.1X#X1X9X4X9X4X1X1X5X6XwXwXtXiXuXdX",
",X>X,X,X,X>X>X>X,X,X,X,X3X,X9X,X9X9X9X9X9X3X8X1X1X1X1X1X4X1X1X3X3X3X5XwXwXuXuXeXuXdX",
",X,X,X,X,X>X>X>X,X,X,X,X,X3X,X9X9X9X9X9X9X9X3X3X1X1X1X1X1X1X1X3X0XwX6X0XuXuXuXuXuXuX"
};
