/* XPM */
static char *Y3J5cHRvLW1vbm5haWUtYml0Y29pbi1pbnZlc3Rpci4_[] = {
/* columns rows colors chars-per-pixel */
"42 42 238 2 ",
"   c #0E0000",
".  c #130201",
"X  c #1C0501",
"o  c #1D0904",
"O  c #1C0E0C",
"+  c #1E1110",
"@  c #240200",
"#  c #2C0400",
"$  c #240B02",
"%  c #2B0D01",
"&  c #240D0A",
"*  c #20070A",
"=  c #330D00",
"-  c #370A00",
";  c #2C1103",
":  c #2A120C",
">  c #271309",
",  c #341304",
"<  c #3B1401",
"1  c #3D1A03",
"2  c #33160C",
"3  c #33190C",
"4  c #3D190B",
"5  c #361B06",
"6  c #2B1312",
"7  c #291815",
"8  c #341C14",
"9  c #3C1E12",
"0  c #391E1C",
"q  c #341C17",
"w  c #260D10",
"e  c #3E2207",
"r  c #3A231C",
"t  c #3A2114",
"y  c #3D2622",
"u  c #3B2A29",
"i  c #3A332C",
"p  c #3E3134",
"a  c #3F3B30",
"s  c #3A2B30",
"d  c #421B04",
"f  c #421D0B",
"g  c #431906",
"h  c #431D12",
"j  c #44220C",
"k  c #4B220D",
"l  c #462707",
"z  c #432313",
"x  c #4B2511",
"c  c #4B2A13",
"v  c #43251A",
"b  c #452A1D",
"n  c #4C2B1C",
"m  c #462B12",
"M  c #532D1A",
"N  c #542A16",
"B  c #4E321B",
"V  c #55311D",
"C  c #5B331D",
"Z  c #573718",
"A  c #442B26",
"S  c #4A2D24",
"D  c #442D2A",
"F  c #472925",
"G  c #522E22",
"H  c #4C3224",
"J  c #4B332D",
"K  c #46362A",
"L  c #543324",
"P  c #5B3422",
"I  c #5C3B24",
"U  c #52362C",
"Y  c #543A2D",
"T  c #5C3B2A",
"R  c #563B24",
"E  c #433333",
"W  c #4B3532",
"Q  c #463934",
"!  c #4C3A34",
"~  c #44363B",
"^  c #453A3A",
"/  c #4D3C3A",
"(  c #533B34",
")  c #5A3C33",
"_  c #523C39",
"`  c #553A36",
"'  c #623A25",
"]  c #633D2B",
"[  c #643A27",
"{  c #61351C",
"}  c #58401A",
"|  c #5E422C",
" . c #5A4226",
".. c #544234",
"X. c #52423A",
"o. c #5C4638",
"O. c #4A4236",
"+. c #63422C",
"@. c #6A422D",
"#. c #674926",
"$. c #634533",
"%. c #6B4533",
"&. c #644934",
"*. c #6B4B34",
"=. c #644B3C",
"-. c #6C4D3B",
";. c #624638",
":. c #724A35",
">. c #754C3B",
",. c #784C39",
"<. c #6B543C",
"1. c #68543A",
"2. c #74533B",
"3. c #775639",
"4. c #70522C",
"5. c #453B42",
"6. c #4C4243",
"7. c #4C424B",
"8. c #47414F",
"9. c #524543",
"0. c #5D4C42",
"q. c #534A4C",
"w. c #574A48",
"e. c #4C4A57",
"r. c #534B56",
"t. c #5A535A",
"y. c #4E505F",
"u. c #624E43",
"i. c #694D46",
"p. c #6B5444",
"a. c #6B594C",
"s. c #685547",
"d. c #735443",
"f. c #7B5642",
"g. c #7B5C4A",
"h. c #755B47",
"j. c #675956",
"k. c #755248",
"l. c #7C644B",
"z. c #766448",
"x. c #6D625F",
"c. c #7D6A5C",
"v. c #796555",
"b. c #595866",
"n. c #645C64",
"m. c #5F6170",
"M. c #65626A",
"N. c #796A67",
"B. c #676877",
"V. c #7A767B",
"C. c #766E72",
"Z. c #81593F",
"A. c #83623F",
"S. c #825C44",
"D. c #855A48",
"F. c #84634D",
"G. c #86694C",
"H. c #8C6B49",
"J. c #876946",
"K. c #836D5D",
"L. c #886855",
"P. c #926958",
"I. c #8A7457",
"U. c #967859",
"Y. c #906B4D",
"T. c #A1745B",
"R. c #887768",
"E. c #9A7863",
"W. c #877976",
"Q. c #916E62",
"!. c #A37D6B",
"~. c #A27C63",
"^. c #A67E74",
"/. c #9C885D",
"(. c #A1835F",
"). c #9A8467",
"_. c #988777",
"`. c #A58568",
"'. c #A68878",
"]. c #B28A76",
"[. c #AE9478",
"{. c #B5967A",
"}. c #AD926C",
"|. c #BCA97F",
" X c #C29679",
".X c #6F7183",
"XX c #77798A",
"oX c #7C7F91",
"OX c #6E6F81",
"+X c #7F8294",
"@X c #8D8586",
"#X c #86899C",
"$X c #858798",
"%X c #958886",
"&X c #A49588",
"*X c #BA9985",
"=X c #BCA685",
"-X c #B5A69A",
";X c #8B8EA1",
":X c #8D92A4",
">X c #9598AA",
",X c #9A9EB1",
"<X c #9DA2B5",
"1X c #B7A8A3",
"2X c #A5AABD",
"3X c #A6A7B9",
"4X c #AFADB5",
"5X c #C39A84",
"6X c #C8A68A",
"7X c #D1B296",
"8X c #C7B8B8",
"9X c #D4B9A8",
"0X c #DDC2A5",
"qX c #F1CDB4",
"wX c #ABAEC1",
"eX c #ACB2C4",
"rX c #B4BACC",
"tX c #B4B7C8",
"yX c #B9BED1",
"uX c #C4BFC5",
"iX c #BDC2D4",
"pX c #BFC6D8",
"aX c #D3C6C9",
"sX c #C4CBDC",
"dX c #C6C8D7",
"fX c #D6CDD4",
"gX c #C9C6CE",
"hX c #EBD7D2",
"jX c #F7E3D4",
"kX c #CCD2E4",
"lX c #CED5E8",
"zX c #D9DAE8",
"xX c #D0D7E9",
"cX c #E7DDE3",
"vX c #F3E7E9",
"bX c #FFF5F2",
"nX c #F3E8E7",
"mX c #D8E0F3",
/* pixels */
"b b H U Y Y H H F F D D E E E p ~ 5.~ ~ ~ ~ p p p 5.5.5.5.6.5.8.e.e.y.b.m.OXXX#X>X3X",
"b H H Y Y Y U U J F F D D E E p s p ~ ~ Q ~ 5.6.5.6.6.7.8.e.r.e.e.y.y.m.m..XoX;X,X3X",
"H H H  .) Y U U J J D D E E E E / ~ E E ^ ^ ^ a 6.6.7.6.5.r.r.y.y.b.b.m.OX.X+X;X,XwX",
"H K Y ( ) ) ` ` J W J W E W W Q E ~ ` 5.9.9.q.q.9.7.q.e.r.r.t.b.b.m.m.B..XoX;X:X<XwX",
"J J Y ( ) ) ` ` ` W W W Q Q O.a W ! Q i u K O.9.w.r.t.t.b.b.b.b.m.m.OX.XXX+X;X>XwXwX",
"J J ( ` ` ` ` _ U ! ! W K O.O.O.X.u.z.R.W.R.a.^ X.9.w.t.n.n.M.m.B.B..XXX+X#X>X,XwXrX",
"J J ! ` _ _ ` _ ( ( ! W O.o.q.s.R.K.c.c._.-X1X-XN.j.r.t.n.M.B.B.OX.XXX+X#X:X,X2XtXyX",
"J J U ` ` ` ` _ ( ( W Q ..u.z.c.&.1.1.o.=.v.).&X8X&XN.n.n.B.C.OX.XXXoX$X;X:X<X2XtXuX",
"D W ( ( ` / _ / ! 0.A _ I.1.O.z.z.z.z.1.l.p.p...N.&X1XW.n.V.m.XXXX+X+X+X>X<X2X2XyXpX",
"D J ! ! / _ _ ! ` r a.c.a O.}.z.z.1.h.h.1.&.&...c.a.W.-X@XC.C.XXoX+X+X:X>X<X2XeXuXuX",
"J W W ! / _ / ! Q 0.a.z.I.I.z.1.z. .#.| m  .T o.o.p.u.N.N.W.W.V.+X;X:X:X,X2XeXrXpXsX",
"J J W W _ / X.O.o.0.s.=.z.z.z./.G.l.<.1.B B e m L ;.( s.N.W.W.@X+X:X:X>X<X2XeXyXpXsX",
"W J W W / / X.X.a.u.).).I././.z.3./.| R R c j j T S o.=.( K.W.@X;X:X,X<X2XwXyXyXsXsX",
"J J W ! ! / X.X.a.v.R.v.I._./.J.e l.B m +.M M C I P $.H b v.c._.:X>X<XwXwXrXyXpXsXlX",
"D J W ! ! ! X.0.O.z.&X=X[.|.|.I.e f.+.| 3.C c c @.+.] d.l.p._ W.,X<X2XwXrXyXpXsXlXlX",
"E D W ! Q Q X.=.s.)._.|.7X|./.1.B &. .j N d x [ >.:.] -.$.<.d.X.<X2XeXrXyXyXsXsXlXxX",
"i i i O.K i ..1.<.I.U.(.|.} l #.Z l 1 < d N k { Z.D.] f.f.d.[ J @XeXrXeXpXsXsXxXkXmX",
"i O.a a  .O.s. .I.I.H.}./.4.#.#.l #.U.4.{ k g { D.D.D.] ' [ k H N.uX4XgXdXdXkXlXlXmX",
"i a i r K ..K.<.l.J.H.U.A.(.(.#.d #.(.Y.Z.N g k ,.:.k.[ M +.V =.n.4XuXgXgXdXdXcXzXzX",
"p a K O.O.a.v.<.).4.A.A.}.A.T.4.d #.T.J.Z.N k @.D.:.[ P P 2.] 1.W N.uX8XaXfX4XfXzXcX",
"i E 9.0.X.K.| 3 I.*.J.J.A.4.A.4.l C D.' { k f [ f.] P ] +.2.>.=.u.w.%XN.W.M.5.n.aXcX",
"r.q.j.j.u.'.K.T g.#.3.Z.} A. XA.d l @.f N N k < N T ] h.%.*.2.-.( y J y W 0 D D 8XhX",
"vXfX0X4XR.K.K.+.E.Z } 4.#.H./.A.- < ,.S.@.] C h h P D.P.*.$.R $.;.F F ` ` ` W w y 5.",
"vXvXbXbX8Xu.R.h.l.#.' l 4.A./.A.d @ ' U.T.G.C < # < g.P.:.-.P $.) 2 6 0 * i.~ 0 O w ",
"vXcXcXbX1X> v.z.I.1.Z #.H.J./.A.f # ' Y.f.d.] 1 f L E.).-.;.c -.R 2 8 X X D i.6 w 6 ",
"fXcXnXbXjXs.O.I.1.3.e } z./.z./.{ # G !.3.S.c Z D.L.*XS.P F.T i.t o > : q r A & w q ",
"7 ^ x.N._.=.> I.l.l.m m } 4.3.G.[ # C P f N 1 x `.[.`.] +.d.%.F.$ > $ 7 6 : & q y D ",
"w   7     o t p.&. .1.3.z.4.#.e - # g - < < C j L.9X6XI.[.d.F.$.$ t t t : q : q w 6 ",
"q . 6 q o r '.[.^.F.F.:.@.%.f.[ [ ,.g ] ' k P.U.[.9X=X{.).T d.R 2 5 ; t 2 0 2 & F F ",
"w w 0 ` o.b Q.I.P.P.f.:.@.,.P [ D.P.g ] #., (.}.{.`.=X0XU.I.2.e 5 ; $ ; $ % 8 F J F ",
"0 D 0 S ` 4 h ] G P { [ C [ h { { ] { [ S.c ~.U.U./.`.G.*.).+.$ , B | | d.-.u.k.k.i.",
"# v F F G F X 4 ] N ,.[ N g N g g { N { #.C ,.G.U.).G.4.E.4., d ; g.].*XjXqX'.k.U F ",
"< G G v S F 2 $ @ f Y.^.7X^.N k 1 f f z M P ] -.%.M c f.Z.g { T.T.qX].Z.U.k.) U q : ",
"] ] ] ) _ A q q X , h G ^.].f.g z f h z b L T ] x N P ,.,.D.Z.D. XqX X[ V 2 3 y r q ",
"' g # % & X o : 2 2 g d.!.[ - - % % 3 4 v G L T D.f.:.D.[ Y.T.D.~.7X~.,.T b r q 7 6 ",
"].L.;.S 0 0 r : 2 , # < ] P g f = 5 z n G L L L G ] P ] P. XhXT.Z.,.k g 5 3 : X O . ",
"^.f.U S r y t $ @ z x @ - ] P M L L L S v v 9 z h S n [ :.P.6Xf.N f % % $ o o O .   ",
"!.-.n r t : > $ : 4 %.f.F.E.] M m t 9 2 % $ % ; S = h T k P x g = $ % 9 8 o   .   . ",
"P h $ $ 6 > > 8 9 -.*X6XL.f.G f % , 2 3 3 8 t v v r ) d.E.9XQ.[ h 2 > : > o     + 7 ",
"9 G H t y r 7 & @ z L.5XD.I V f z n T ;.=.=.u.p.a.k.k.k.Q.F.G # X X X . . . . O p 6.",
"T b t : > o . 2 '.*XP.2.M x k ; M $.g.h.u.u.p.u.a.L.K.L.L.L.i.G & . o o O   O i 6.6.",
"t ; o X o . . 2 v.P.T f j g.E.*.;.k.Q.v.i.;.o.( ` ` ` U i.Q.^.E.2 . + + 7 . 7 ^ 9.q."
};
