/* XPM */
static char *dGUlQ0MlODFsZSVDQyU4MWNoYXJnZW1lbnQrJTI4MSUyOS4_[] = {
/* columns rows colors chars-per-pixel */
"42 42 245 2 ",
"   c #2B333E",
".  c #272E36",
"X  c #102332",
"o  c #18324B",
"O  c #293846",
"+  c #323C48",
"@  c #243E5E",
"#  c #38414D",
"$  c #2C475A",
"%  c #384757",
"&  c #3B515F",
"*  c #184C77",
"=  c #384C62",
"-  c #344E70",
";  c #3D5976",
":  c #2F4F72",
">  c #42444C",
",  c #484B55",
"<  c #54545B",
"1  c #4A545E",
"2  c #465668",
"3  c #555D69",
"4  c #445D75",
"5  c #424C65",
"6  c #5C626A",
"7  c #4B667D",
"8  c #586777",
"9  c #676C77",
"0  c #69707A",
"q  c #6F7175",
"w  c #8A7F7B",
"e  c #7F817E",
"r  c #97867C",
"t  c #2B5989",
"y  c #315C8F",
"u  c #28648C",
"i  c #3A6B8D",
"p  c #2B6794",
"a  c #3A6A97",
"s  c #39739A",
"d  c #3A77A6",
"f  c #2F70A4",
"g  c #486A86",
"h  c #54728C",
"j  c #5A7789",
"k  c #466E98",
"l  c #4A779A",
"z  c #557597",
"x  c #526F8B",
"c  c #687887",
"v  c #777D88",
"b  c #637E97",
"n  c #646F83",
"m  c #487DAA",
"M  c #587CA4",
"N  c #617DA2",
"B  c #937F80",
"V  c #588298",
"C  c #67859A",
"Z  c #778999",
"A  c #7C8794",
"S  c #4A82A6",
"D  c #5A84A5",
"F  c #5786A9",
"G  c #4987B7",
"H  c #538BB4",
"J  c #578CB6",
"K  c #5A93B9",
"L  c #5E90AB",
"P  c #688AA7",
"I  c #768EA7",
"U  c #6B94AB",
"Y  c #7697AA",
"T  c #6897B8",
"R  c #749CB4",
"E  c #7A9DB3",
"W  c #7899B8",
"Q  c #6A8EB3",
"!  c #74A3BB",
"~  c #7CA5BB",
"^  c #78A2B6",
"/  c #6EA2BF",
"(  c #5995C5",
")  c #5696CC",
"_  c #689BC5",
"`  c #779CC1",
"'  c #649FD1",
"]  c #6DA4CC",
"[  c #69A3C9",
"{  c #7AA3C3",
"}  c #78A8C7",
"|  c #69A5D4",
" . c #74AAD2",
".. c #78ADD8",
"X. c #7CB2D5",
"o. c #7BB3DA",
"O. c #7AB8E5",
"+. c #7EBDF0",
"@. c #858789",
"#. c #9B8C89",
"$. c #868C97",
"%. c #879199",
"&. c #969496",
"*. c #9D968E",
"=. c #A3A29E",
"-. c #8A98AA",
";. c #979BA5",
":. c #849CB3",
">. c #879DB6",
",. c #929EB4",
"<. c #8EA5AE",
"1. c #99A1AB",
"2. c #84A3B4",
"3. c #84ABBC",
"4. c #89A6B9",
"5. c #93A4B3",
"6. c #94ADBD",
"7. c #9BABBB",
"8. c #9AA6B6",
"9. c #9EB0BF",
"0. c #A6A5A8",
"q. c #B4AAA6",
"w. c #A7ADB8",
"e. c #A8B2B8",
"r. c #B8B5B6",
"t. c #BBB1AF",
"y. c #A89999",
"u. c #C0B2AF",
"i. c #83A5C3",
"p. c #84ACC5",
"a. c #8CACC4",
"s. c #83ACCA",
"d. c #88A8CA",
"f. c #93ADC3",
"g. c #97ACC9",
"h. c #84B3CB",
"j. c #8BB4CC",
"k. c #8DB4C7",
"l. c #94B4C3",
"z. c #94BACC",
"x. c #9BBCCC",
"c. c #9AB5C6",
"v. c #8DBAD3",
"b. c #88B8D8",
"n. c #94BBD4",
"m. c #9BBCD2",
"M. c #95B7D7",
"N. c #88AED6",
"B. c #A3B6C4",
"V. c #A5BDCB",
"C. c #ABBCCA",
"Z. c #A4B7C7",
"A. c #B4BBC7",
"S. c #A3BDD3",
"D. c #A4AFC1",
"F. c #87BBE4",
"G. c #99BBE0",
"H. c #C4BFC6",
"J. c #9DC1CD",
"K. c #8CC0D8",
"L. c #9CC3D4",
"P. c #93C2DB",
"I. c #9DC3DC",
"U. c #9ECADE",
"Y. c #96C3D6",
"T. c #A3C2CD",
"R. c #ADC3CE",
"E. c #B7C1CA",
"W. c #A4C4D3",
"Q. c #ABC4D4",
"!. c #ABCAD6",
"~. c #A2C4DA",
"^. c #A4CADB",
"/. c #AACDDB",
"(. c #A4CAD5",
"). c #B1CCDB",
"_. c #B7C8D6",
"`. c #ACD2DE",
"'. c #B2D2DE",
"]. c #BDD2DD",
"[. c #8BC2E9",
"{. c #9CCBE4",
"}. c #95C5E6",
"|. c #92CBF8",
" X c #9AD2F7",
".X c #88C4F5",
"XX c #A3CCE3",
"oX c #AACEE3",
"OX c #A6C7E5",
"+X c #B4CEE1",
"@X c #ACD2E4",
"#X c #A4D4EB",
"$X c #ABD4EB",
"%X c #A9D5E9",
"&X c #B3D4E3",
"*X c #BBD5E3",
"=X c #B5D9E6",
"-X c #BCDAE5",
";X c #B5DAEB",
":X c #BCDCEB",
">X c #B6D5EB",
",X c #A4CEF1",
"<X c #AAD7F5",
"1X c #B4DCF3",
"2X c #B6D8F5",
"3X c #BDE1EE",
"4X c #B2E0EF",
"5X c #BCE3F2",
"6X c #BDEAFF",
"7X c #BAE3F6",
"8X c #ACE0F8",
"9X c #C7C5C5",
"0X c #C4CDD9",
"qX c #C9D6DD",
"wX c #D7D0CF",
"eX c #C3D4E2",
"rX c #CBD4E1",
"tX c #C5DAE5",
"yX c #CBDBE4",
"uX c #C4DDEB",
"iX c #CCDEED",
"pX c #D4DBE8",
"aX c #C1DEF2",
"sX c #C8DCF5",
"dX c #D2DFF0",
"fX c #C3E2ED",
"gX c #CDE1EB",
"hX c #D5E3EB",
"jX c #C3E4F3",
"kX c #CAE5F3",
"lX c #C3E5FC",
"zX c #C3EAFD",
"xX c #CAEBFB",
"cX c #C7E9F6",
"vX c #D1EAF4",
"bX c #D3EDFB",
"nX c #DAE6F5",
"mX c #CCF2FF",
"MX c #CBF6FF",
"NX c #D1F2FE",
"BX c #DAF4FE",
"VX c #E4EAEB",
"CX c #E6ECF6",
"ZX c #EBF5FB",
"AX c #F2FBFF",
/* pixels */
"Y.j.U.U.P.U.{.K.{ L l } {.6XMX1X{.4X4X'.5X=XJ.(.fXMX].].'._.vXBX;XY.~ z.7XxX2X2Xs.U ",
"XX7X6X{.K.v.h.} v.<X4X6X1Xh.U R E Y `.3XxXjX`.=XfXfX-XfXNXfXtXaX5X/.(.lXlX$XS.m.d.i.",
";XU.R ! U.#X%XzX1Xv.U ~ p.p.~ R z.@X=X=XfXcXcXT.(.fX3X-XkXjX>XkXcX!.'.jX-XjXbXlX:X2X",
"L.k.^ `.zXz.^ } h.! h.XX%X%X1X;XJ./.T.x.T.*X(.T.R.'.-X=X&X(./.xXgX-X3X].*XkXiXS.aX:X",
";X;X`.;X%Xz.Y.XXzXzX1XU.z.p.J.zX;XcXkX*XBX&X$ R.gX'.!.`.L.3.R 2.T.<.<.R.].R.R.*X*XsX",
"/./.@X@X@X4XmXmXlX1X7X:XmXxX7X3XNXx.l.T.*XkX% O T.'.-X`.=X7X4X`.(.fXBXBXBXNXkXcXaXuX",
":XjXNXNXjX$X(.L./.^.5X@X^.=XvXcXxX3X'.*XC.iX5.X c uXcXJ.`.MXMX4X7X@X%X1XXXh.v.$X~ R ",
"=X'.=X&X3X:Xx.k.^.;XcX(.:XjXfX3XjX`.`.bXvXbX_.o O B.T.6.`.3X3X4X^.@XXX3.R z.I.^ v.P.",
"T.fX-X-XjX*X=XjXjX2.E <.!.'.B.J.L.J.(.mXkXbX).O # c iXeXQ.Q.uXuXtXgXvXvXNXvXcXcXkX:X",
").'.`.c./.aX^.x.2.C 2.J.`.!.'.3X`.3XcX3XV.Z.5.+ 5 2 ,.*XeXC.6.V.eXhXhXgXfXvXvXxXjX:X",
"kXkXJ.W./.(.`.3.3.L.3XcX-XfXNX(.J.(.3.6.Z.8 O + O + 1 9 $.A.0XdXaXkXxXxXcX;XXXU.n.{.",
"(.*X/.cXjX^.=Xz.T.`.jXjX'.T.3XjX4X(.(.9.7 O +   # > , > > 3 v 7.Q.+X+XoX%XXXP.b.v.}.",
"+X@XNXxXjXmXlX;XmX3X:X3X`.x.9.!.=XvX6.4 O O O + + + > > 2 < < 3 Z 6.Q.^.oX>X#XP.{.{.",
"/.x.~.W.~.;X@XW.Y.z./.;XjXmXcXxX'.I 3 2 2 , + O   # 1 # , < 6 < 3 c -.Q.+Xz.~ p.h.h.",
"z.m.l.$X;XL.~.k.L.U.=XjXJ.z.(.T.I 5 2 n 3 2 1   . , 9 A < > < 6 < 1 c C.bXaX;XxXmXMX",
":XcXjX;X~.v.v.p.^ n.@X6XL.:X-Xj & 8 n 8 8 v 0 6 3 6 B H.y.q < < q < 6 %.C.c.Y V ^ s.",
"vXcX`.K.P.P.b. .[ L ! {.Y.l.P 2 8 8 c Z Z %.5.D.w.$.v $.w.w.#.$.@.q q A B.I P l T b.",
"T.!.(.U F H S d p u i D E Y 8 5 5 b 5.7.7.Z.C.D.D.-.-.v 9 &.w.r.r.q.#.%.A L.F.<XO.F.",
"h.{  .T K ( ' .X|.[.] P 4 4 8 2 Z 8.C.7.5.8.7.5.8.-.w.w.;.;.0.y.q.q.q.&.1.5.^.,XF _ ",
"X. .[ G G f f p s p k h 4 & 3 6 8.7.c.5.<.5.7.Z.g.,.,.1.e.e.0.q.u.u.q.B &.0Xm.s._ F.",
"H ( G G G d d p p m z g 7 % 2 A C.C.R.R.T.c.6.f.S.g.D.8.0.r.H.r.r.q.q.B 0.qXZ U b.F.",
"J _ [ | [ S d f a a k b b 2 c rXyXyXyXeX].Q.g.:.I :.-.8.A.r.9X9XH.wXB q.#.H.-.z.T X.",
"} X.} S S [ X.X.T ! R h P T.uX_.yXyXyXeXtXkXaX+Xg.g.I $.$.v &.r.0.9Xr r #.0.0XU a H ",
"h.} K.! K.8XK.v.P.K.R C /.;X+X*XyXyXyXtXuXjX>X^.M.g.4.-.8 8 &.w.e.E.wXwX*.w I C T K ",
"#X8X{.P.{.{.8X%X$Xm.3.;X/.&X*XuXgXhXgXqXfX&X~.>XM.>.>.x % c @.c I 2.B.w.A.%.j ! o. X",
" XK.X. .L V ^ ~ m.a.uX:X).).tXsXyXyXE.!.eX/.z.p.W G.OXP - 8 8.c.h.P.4.5.C.%.7 }  X[.",
"G G K H _ W 3.J.S.nXCXrXdXA.rXrXhXyXqXqXfX)./.a.M.$X2X>X2XaX>Xx.X.#X^.'.-X2.g / ] ..",
") ) .X.X}.}.m.^ dXnXdXpXqXrXnX0XqXqXnXqXfX)./.L.M.M.N.` M.$X~.<XK.K V U E 3.U s t t ",
"G ) ' J } >.:.+XAXpXVXCX0XVXpXrX9XE.CXeX'.T.6.3.R d.b.} }.,XT J G ( d i D F L  .' / ",
"( _ _ T W 4.S.CXZXCXCXCXpXpXrXdXA._.ZXvXqXT.4.k.h.}.b.h... .X.F.+.' | ] K K  .K X.[.",
"Q { 3.&XuXpXpXVXVXVXVXpX0XA.dXeXA.dXnXiX].B.c.M.h.{ /  . .[ ..+.' ) K K _ X. XO.X.o.",
"m.E :.BXvXhXVXZXVXAXpXw.D.D.:.S._.hXC.B.c.<.f.3.j.P S s l H s u p  ..X|.[.[.[.[.[.} ",
"sX*X_.dXCX].nXAXnX7.4 b g.i.P E W 4.I Z E C D Q b.} M.} ! T / [ X.o.X.H S H ] [.}.,X",
"g.:.>.f.V.].C.Z.:.Z b z x z D Q b I f.x.6.^ s.Q i.} {.^.XX;X6X<XK.#Xb.L { }.b.W } K.",
"P P h E :.4.l.I S.OXg.4 N N.i.>.Y g.S.).W.S.OXOX,XlX7X$X7X$X,XOXoXoXY.L.oXoXm.aXoX>X",
"<Xb.} v.j.XXI.Y.OXW M k Q d.` W W M.c.>.U x.>X2XsX2X2X;XL.m.xXlXW.-X-X!.<.b g I ~.~.",
"}.v.U.{.%X8XK.U M k k a t * t M M x :.>XS.S.S.N.2X<Xg.P C j P x x 8 c -.*XjX).S.Q./.",
"}.}.}.X./ S K K a m y y y k t : z d.sX2X>.a.M.g.b - 7 b g $ - @ $ 1 Z c._.2.Y f.2XlX",
"..[ O.K s u * s G k k y t k ` i.N.G.I.R x ; = @ o g n = $ = : - 4 b 2.I x g D d.P F ",
"G d p p s H s u m ' F.' ` ..N.N.D l W U j x P W Q b 4 o 4 j x N z ^ m.M.T W T K F J ",
"D D ` N.G.F...O.F.G.F.F.O.) G ) m M M j.$Xm.~.a.W C C V.S.g.W ` { ! W F F ] ..| | | ",
"M.OX<X$X,X,XF.' | | ) ) G G f f m F l l U P U h :.x.+X>Xx.Y z z M m l a k _ ( G ( ( "
};
