/* XPM */
static char *bGVzLWRhdXBoaW5zLWF1cmFpZW50LXVuZS1wZXJzb25uYWxpdGUtcHJvY2hlLWRlLWNlbGxlLWRlcy1odW1haW5zLg__[] = {
/* columns rows colors chars-per-pixel */
"42 42 241 2 ",
"   c #17263D",
".  c #0A1930",
"X  c #14375A",
"o  c #1E2A5C",
"O  c #002E7C",
"+  c #00387A",
"@  c #002863",
"#  c #283265",
"$  c #134678",
"%  c #334E76",
"&  c #3A5579",
"*  c #2D4F6F",
"=  c #4A5977",
"-  c #505774",
";  c #605E6C",
":  c #566276",
">  c #6A737B",
",  c #606873",
"<  c #003A83",
"1  c #003394",
"2  c #024888",
"3  c #024B9A",
"4  c #034997",
"5  c #015395",
"6  c #00529D",
"7  c #035C98",
"8  c #195594",
"9  c #0C548B",
"0  c #385B8A",
"q  c #285891",
"w  c #1C6494",
"e  c #236188",
"r  c #38658C",
"t  c #32689B",
"y  c #0253A3",
"u  c #005BA4",
"i  c #0053AA",
"p  c #005CAA",
"a  c #0C59A7",
"s  c #1459AC",
"d  c #015CB5",
"f  c #005DBB",
"g  c #0556BA",
"h  c #0E56AC",
"j  c #0163AC",
"k  c #0966AB",
"l  c #1966AB",
"z  c #0164B3",
"x  c #016AB4",
"c  c #0C6BB4",
"v  c #0164BC",
"b  c #046CBA",
"n  c #0B6BB9",
"m  c #1668B8",
"M  c #0971B9",
"N  c #1774BA",
"B  c #2C65A1",
"V  c #2574A8",
"C  c #3372AD",
"Z  c #414F80",
"A  c #5B6A89",
"S  c #486C99",
"D  c #5C6F93",
"F  c #537498",
"G  c #656C86",
"H  c #697688",
"J  c #737B87",
"K  c #697899",
"L  c #497AAA",
"P  c #717EA2",
"I  c #657DA1",
"U  c #025FCE",
"Y  c #005CD0",
"T  c #0064C3",
"R  c #016CC4",
"E  c #0264CA",
"W  c #026CCC",
"Q  c #0D69C7",
"!  c #1867C9",
"~  c #0E75C3",
"^  c #0B7BCC",
"/  c #0476C9",
"(  c #1271CC",
")  c #167BC7",
"_  c #006BD3",
"`  c #096CD9",
"'  c #136BD5",
"]  c #1B6BD0",
"[  c #0073D3",
"{  c #017CDB",
"}  c #0678D7",
"|  c #1674D9",
" . c #2878C5",
".. c #256CD1",
"X. c #327AD3",
"o. c #005FE9",
"O. c #0B6BE4",
"+. c #0064ED",
"@. c #026BED",
"#. c #0B6DEA",
"$. c #0569E5",
"%. c #166BE6",
"&. c #0174E5",
"*. c #0079E3",
"=. c #0174ED",
"-. c #0B74ED",
";. c #027CEC",
":. c #0E76E4",
">. c #1374E5",
",. c #1677EB",
"<. c #0065F1",
"1. c #026CF4",
"2. c #0B6CF4",
"3. c #016EFC",
"4. c #0A6EFD",
"5. c #0067FF",
"6. c #0274F4",
"7. c #0B76F5",
"8. c #017AF4",
"9. c #0075FC",
"0. c #0A74FD",
"q. c #0279FE",
"w. c #0B7AFD",
"e. c #0B7CF1",
"r. c #137AFB",
"t. c #2177E3",
"y. c #447FE3",
"u. c #5F808F",
"i. c #798198",
"p. c #668099",
"a. c #588CB6",
"s. c #5182B6",
"d. c #6787A3",
"f. c #6C8AB3",
"g. c #7390B2",
"h. c #0183DC",
"j. c #0B85D9",
"k. c #1283D3",
"l. c #3985C9",
"z. c #2988D6",
"x. c #0081ED",
"c. c #058AE7",
"v. c #0B94EA",
"b. c #0284F3",
"n. c #028DF3",
"m. c #0C87F8",
"M. c #1685FF",
"N. c #0294F3",
"B. c #059AF6",
"V. c #0C9BF8",
"C. c #148AEA",
"Z. c #3988E7",
"A. c #0DA4FF",
"S. c #0FA1F7",
"D. c #10A4FD",
"F. c #26A1F1",
"G. c #5387C2",
"H. c #518DD5",
"J. c #7C9BC4",
"K. c #668AD5",
"L. c #6495D4",
"P. c #5595EA",
"I. c #478FEA",
"U. c #659CF8",
"Y. c #7B98E4",
"T. c #75A7FF",
"R. c #6EB5FB",
"E. c #79B7FA",
"W. c #6DA4F2",
"Q. c #77A3D0",
"!. c #89858C",
"~. c #888A93",
"^. c #89939A",
"/. c #979898",
"(. c #B6A89D",
"). c #8789A3",
"_. c #8993A7",
"`. c #879CB7",
"'. c #969AB0",
"]. c #A19EAB",
"[. c #97A1BD",
"{. c #93A3AF",
"}. c #A7A5A9",
"|. c #AEAEB5",
" X c #C6B7AA",
".X c #C8C1BA",
"XX c #D6C9B9",
"oX c #D5C6AF",
"OX c #839DC2",
"+X c #909FC0",
"@X c #99A9C7",
"#X c #90ADD3",
"$X c #A8ABC1",
"%X c #ACB1C9",
"&X c #BCBAC7",
"*X c #B6B9D3",
"=X c #AEBFDD",
"-X c #89B7E9",
";X c #94BBFD",
":X c #92B1E8",
">X c #ACBDE4",
",X c #B7BFE3",
"<X c #C3B6C0",
"1X c #BDC5D8",
"2X c #8AC6FF",
"3X c #93C2FD",
"4X c #99C7F8",
"5X c #97D6FF",
"6X c #AAC5EA",
"7X c #B9C8EA",
"8X c #A6C9FA",
"9X c #ADDEFF",
"0X c #BADBFF",
"qX c #B9D5FB",
"wX c #B3CBF5",
"eX c #95E1FF",
"rX c #A6E4FF",
"tX c #B7E8FF",
"yX c #C8C4C5",
"uX c #D7CDC3",
"iX c #C8CAD8",
"pX c #CDD0D9",
"aX c #D6D3DA",
"sX c #D6CFD3",
"dX c #E6E3DC",
"fX c #C2CBEA",
"gX c #CBD9FD",
"hX c #C8D9F7",
"jX c #CFD8E8",
"kX c #E3DFEE",
"lX c #DDE1EC",
"zX c #C8E6FF",
"xX c #D6E8FE",
"cX c #CBF6FF",
"vX c #D4F5FF",
"bX c #DDF9FF",
"nX c #E4EAF7",
"mX c #E3F3FF",
"MX c #EBF9FF",
"NX c #F1FAFF",
"BX c #FAF6FE",
/* pixels */
"3.9.1.2.2.2.4.4.0.<.$...5XMXyX.X|.(./.> A g.G.m t.2.q.q.3.3.0.0.8.q.9.9.9.9.q.9.8.9.",
"3.3.1.2.2.2.4.4.9.1.#.Z.rXMXyX|.|././., - f.L s | #.q.q.9.3.1.7.9.9.9.9.9.9.9.9.q.9.",
"3.3.1.1.2.2.4.4.0.0.,.R.cXxXyX(.(.~.~.: % A B s ] -.q.q.9.9.7.7.9.9.9.9.9.q.9.9.9.9.",
"9.3.6.1.2.2.4.4.@.r.,.5XMXjXuX(.^.> i.: * S q h ' =.9.q.9.9.6.6.8.9.9.9.9.9.9.q.9.9.",
"3.9.3.6.3.2.4.1.#.,.X.rXbXpXXX X!.> i.A & 0 s s ` &.q.q.q.6.6.6.9.9.9.9.9.9.9.9.9.9.",
"9.6.9.1.1.9.7.2.#.] P.tXvXpXXXoX~.G i.D 0 0 8 h W &.8.q.q.9.6.6.9.q.9.9.q.9.q.9.9.q.",
"9.6.3.9.3.6.4.#.%.! R.tXzXsXXXXX'.K P D & q 8 m E ` 8.q.q.9.6.=.8.q.9.9.9.9.9.9.9.9.",
"6.6.9.9.9.3.9.-.t.m 3XzXjXdXoXXX|.I K A % q 8 l T &.8.b.q.8.6.6.9.9.9.q.8.q.9.q.q.9.",
"6.6.9.9.3.9.4.#.! X.;X7XNXsXoXXX%XP A D & * w k T _ @.8.q.b.q.6.8.q.9.9.9.9.9.8.q.q.",
"1.6.3.9.9.9.9.%.] H.;X=XnXsXXXuX_.A = = * $ w N R _ &.8.b.q.9.1.9.9.9.9.9.9.9.9.q.q.",
"=.1.9.9.9.3.4.%...K.>X$XaXuXXX.X_.G = = & * w M ~ ` &.8.q.q.9.8.9.9.q.9.q.9.q.q.q.q.",
"&.@.3.9.9.9.4.%...K.J._.&X<X.X}.].).> u.d.r * V ) } =.8.8.q.0.q.9.9.8.9.9.9.9.9.q.q.",
"$.@.3.9.3.9.4.%.y.y.Z G ].<XaX&XiX$XJ H {.g.r V ) } *.6.9.q.q.0.9.9.9.q.9.9.9.9.q.q.",
"O.#.3.9.3.3.4.%.T.K.o - ].sXnXaXMXpX~.G g.g.r V ) ^ &.=.8.q.0.0.q.9.9.9.9.9.9.9.q.q.",
"O.#.1.3.9.3.4.%.T.:Xo ).<XkXkXiXlXaX~.> i.u.$ w N ^ &.=.q.q.0.0.9.9.9.9.9.9.9.9.q.q.",
"O.#.5.3.3.3.4.%.T.#XZ *XkXfX*X'.}.|.!.J {.d.e V N ^ ` =.9.0.0.4.9.9.q.9.9.9.q.9.q.q.",
"1.<.q.9.3.q.%.X.;X,X).<XBXBXNXpX!.!.; - g.u.7 M k.v.m.8.9.0.r.4.0.9.9.9.9.9.q.9.q.q.",
"9.3.w.9.3.w.' l.8XgX<XaXBXMXMXlXsXsX'.d.a.w $ M j.v.m.8.3.0.r.4.q.9.9.9.9.9.9.9.q.q.",
"1.3.q.3.q.7.' P.qXgX<XkXBXnXvXhX%X*X`.F C 9 7 F.C.v.m.8.9.0.r.4.q.9.9.9.9.9.9.9.9.q.",
"1.3.q.5.q.7.' T.xXgX%X&XnXxX6X#XqXqX:Xa.V 7 k F.v.c.b.8.7.0.r.4.9.9.9.9.9.9.9.q.q.q.",
"1.3.9.1.w.1.' E.vXzX*X$X1X6XQ.L.3X-XL.C M j M v.V.n.x.8.9.6.0.0.6.q.q.9.9.9.9.9.q.q.",
"1.4.5.<.m.=.' 5XzXgXfX`.g.s.B l.V l k k j k.c.S.A.N.x.8.8.6.7.0.9.9.q.9.9.9.q.q.q.q.",
"<.7.1.+.M.#.! rX0XqXwXg.S t 5 l.z.^ k.j.j.v.S.N.D.n.x.;.8.8.6.7.9.q.9.9.9.9.9.9.q.q.",
"@.0.1.+.M.$.! tXzXwX>Xd.L C y | R R j.v.v.A.D.S.A.n.;.;.;.6.=.6.8.9.9.9.9.9.9.9.q.q.",
"1.1.1.7.1.Y I.rXtXwX#XOXL m n } [ h.c.v.B.B.S.A.N.b.x.b.b.=.=.8.6.q.q.q.q.q.q.q.q.q.",
"2.<.+.9.-.U I.tXqX>X#XOXG. .R W [ [ { c.N.B.B.N.c.x.x.;.8.&.=.w.9.q.q.q.q.q.q.q.q.q.",
"@.+.1.7.#.U P.tX0X7X#Xf.G.l.[ U [ [ [ h.N.v.c.h.c.{ *.;.;.=.=.8.q.q.q.q.q.q.q.9.q.q.",
"+.1.@.1.%.] P.cXgXfX+XF L  .} E { { h.h.v.c.h.} [ W [ ;.=.=.8.m.q.9.q.q.q.q.q.q.q.q.",
"+.1.1.2.#.] U.vXgXfX[.D B m W T W / h.j.j.j.} / R E _ *.;.=.8.w.q.q.q.q.0.q.q.q.q.q.",
"<.6.1.@.O...W.vX,X*X[.I t l f U d x / k.k.^ ^ ^ v T _ *.;.8.8.w.q.9.q.9.q.q.q.9.q.q.",
"1.9.1.@.` ..W.vX7X|.).K t 6 f T z x b ~ ) M b z v R W *.e.8.9.b.q.q.9.q.q.q.q.q.9.9.",
"5.9.9.1.$...Y.vXfX[.K S B 6 d W ~ M M M ) ~ z y x v W :.e.9.q.w.q.q.q.q.q.q.q.q.q.9.",
"9.5.q.q.7.g 4XbXhX`.S B s 3 1 i c n ) ~ b j j j j c ( } -.w.w.9.q.q.q.q.q.q.q.9.9.q.",
"9.5.3.9.$.g ;XxX7XOXt a i i 4 3 3 i d d p y u 7 k k n ( :.7.q.q.q.q.q.q.q.q.q.q.9.9.",
"q.5.9.9.7.! 8XmXgX+XB 3 y i h 4 4 3 p p p p u j c j k ( >.=.q.q.9.q.9.q.q.0.q.9.q.9.",
"+.o.3.3.#.m 8XxXmXOX8 3 d g 3 a y p z z z z b M c 6 y ( ,.6.3.q.q.q.q.q.q.q.q.q.q.q.",
"%.,.r.-.( l 8XmXnXd.+ 6 ! d y m a z z v x x x c 7 2 4 Q ,.7.3.q.q.q.q.9.q.q.q.q.q.q.",
"] ' O.W Q C tXNX@X& @ 3 ~ f a N c c n b b x j k 5 < < i | r.0.q.9.q.q.q.q.q.q.q.q.q.",
"X.C t.X.X.L qXlX= X + 6 v v d m c c b M b b j k 5 < O 4 U ,.w.9.q.q.q.q.q.q.q.9.q.q.",
"9X5XeX5XrX3XzXfX. X 9 p d v z u p j j x x j 7 5 9 2 O < g >.w.1.q.q.9.q.9.q.q.q.q.q.",
"-X-XE.R.E.:XxXH   X 2 y d d p j j j x x z u 5 5 5 $ + O 1 U M.6.q.q.0.q.q.q.q.q.q.q.",
"6X4X2X2X3X4XxX:   X 2 y d v p p p z z x z u 5 2 2 < + O 1 T r.8.q.q.q.q.q.q.q.q.q.q."
};
